<svg xmlns="http://www.w3.org/2000/svg" width="97.125" height="111" viewBox="0 0 97.125 111">
  <g id="pdf" transform="translate(-32)">
    <path id="Path_252" data-name="Path 252" d="M102.938,0A6.958,6.958,0,0,0,96,6.938v97.125A6.958,6.958,0,0,0,102.938,111h69.375a6.958,6.958,0,0,0,6.938-6.937V27.75L151.5,0Z" transform="translate(-50.125)" fill="#e2e5e7"/>
    <path id="Path_253" data-name="Path 253" d="M358.938,27.75H379.75L352,0V20.813A6.958,6.958,0,0,0,358.938,27.75Z" transform="translate(-250.625)" fill="#b0b7bd"/>
    <path id="Path_254" data-name="Path 254" d="M404.813,148.813,384,128h20.813Z" transform="translate(-275.688 -100.25)" fill="#cad1d8"/>
    <path id="Path_255" data-name="Path 255" d="M115.25,278.156a3.479,3.479,0,0,1-3.469,3.469H35.469A3.479,3.479,0,0,1,32,278.156V243.469A3.479,3.479,0,0,1,35.469,240h76.313a3.479,3.479,0,0,1,3.469,3.469Z" transform="translate(0 -187.969)" fill="#f15642"/>
    <g id="Group_397" data-name="Group 397" transform="translate(47.12 63.808)">
      <path id="Path_256" data-name="Path 256" d="M101.744,296.235a1.909,1.909,0,0,1,1.884-1.915h6.407a6.934,6.934,0,0,1,0,13.868H105.4v3.663a1.741,1.741,0,0,1-1.776,1.911,1.869,1.869,0,0,1-1.884-1.911Zm3.66,1.578v6.91h4.631a3.457,3.457,0,0,0,0-6.91Z" transform="translate(-101.744 -294.32)" fill="#fff"/>
      <path id="Path_257" data-name="Path 257" d="M189.739,314.665a1.736,1.736,0,0,1-1.915-1.717V297.192a1.887,1.887,0,0,1,1.915-1.72h6.351c12.675,0,12.4,19.193.25,19.193Zm1.748-15.807v12.425h4.6c7.489,0,7.822-12.425,0-12.425Z" transform="translate(-169.162 -295.222)" fill="#fff"/>
      <path id="Path_258" data-name="Path 258" d="M290.764,299.067v4.409h7.073a2.145,2.145,0,0,1,2,1.967,1.927,1.927,0,0,1-2,1.665h-7.073v5.824a1.643,1.643,0,0,1-1.662,1.717,1.762,1.762,0,0,1-1.967-1.717V297.176a1.753,1.753,0,0,1,1.967-1.72h9.737a1.73,1.73,0,0,1,1.943,1.72,1.916,1.916,0,0,1-1.943,1.887h-8.075Z" transform="translate(-246.944 -295.21)" fill="#fff"/>
    </g>
    <path id="Path_259" data-name="Path 259" d="M161.906,419.469H96v3.469h65.906a3.479,3.479,0,0,0,3.469-3.469V416A3.479,3.479,0,0,1,161.906,419.469Z" transform="translate(-50.125 -325.813)" fill="#cad1d8"/>
  </g>
</svg>
