<svg xmlns="http://www.w3.org/2000/svg" width="94.5" height="108" viewBox="0 0 94.5 108">
  <g id="xls" transform="translate(-32)">
    <path id="Path_276" data-name="Path 276" d="M102.75,0A6.77,6.77,0,0,0,96,6.75v94.5a6.77,6.77,0,0,0,6.75,6.75h67.5a6.77,6.77,0,0,0,6.75-6.75V27L150,0Z" transform="translate(-50.5)" fill="#e2e5e7"/>
    <path id="Path_277" data-name="Path 277" d="M358.75,27H379L352,0V20.25A6.77,6.77,0,0,0,358.75,27Z" transform="translate(-252.5)" fill="#b0b7bd"/>
    <path id="Path_278" data-name="Path 278" d="M404.25,148.25,384,128h20.25Z" transform="translate(-277.75 -101)" fill="#cad1d8"/>
    <path id="Path_279" data-name="Path 279" d="M113,277.125a3.385,3.385,0,0,1-3.375,3.375H35.375A3.385,3.385,0,0,1,32,277.125v-33.75A3.385,3.385,0,0,1,35.375,240h74.25A3.385,3.385,0,0,1,113,243.375Z" transform="translate(0 -189.375)" fill="#84bd5a"/>
    <g id="Group_403" data-name="Group 403" transform="translate(47.446 61.469)">
      <path id="Path_280" data-name="Path 280" d="M113.476,301.614l4.695-5.883c1.4-1.836,4.131.51,2.592,2.265-1.617,1.917-3.318,4-4.938,6.126l5.5,6.855c1.485,2.025-1.482,3.966-2.94,1.968l-4.968-6.369-4.884,6.507c-1.377,1.968-4.428-.243-2.889-2.079l5.424-6.882c-1.7-2.133-3.348-4.209-4.992-6.126a1.746,1.746,0,1,1,2.7-2.207Z" transform="translate(-105.226 -294.276)" fill="#fff"/>
      <path id="Path_281" data-name="Path 281" d="M197.36,296.991a1.683,1.683,0,0,1,1.7-1.647,1.645,1.645,0,0,1,1.593,1.647v13.52h7.341a1.781,1.781,0,1,1,0,3.534h-8.93a1.63,1.63,0,0,1-1.7-1.644v-15.41Z" transform="translate(-177.925 -294.514)" fill="#fff"/>
      <path id="Path_282" data-name="Path 282" d="M270.86,296.315c.621-5.238,8.525-6.18,12.251-3.318a1.58,1.58,0,1,1-1.728,2.643c-2-1.266-6.531-1.86-7.1.942-.729,4.428,11.009,1.893,10.82,9.072-.189,6.855-10.118,7.013-13.844,3.939a2,2,0,0,1-.378-2.646,1.594,1.594,0,0,1,2.4-.186c2.211,1.509,7.908,2.643,8.309-1.191C281.248,301.58,270.023,303.979,270.86,296.315Z" transform="translate(-235.674 -291.407)" fill="#fff"/>
    </g>
    <path id="Path_283" data-name="Path 283" d="M160.125,419.375H96v3.375h64.125a3.385,3.385,0,0,0,3.375-3.375V416A3.385,3.385,0,0,1,160.125,419.375Z" transform="translate(-50.5 -328.25)" fill="#cad1d8"/>
  </g>
</svg>
