<svg xmlns="http://www.w3.org/2000/svg" width="512" height="512" viewBox="0 0 512 512" fill="none">
<path d="M128 0C110.4 0 96 14.4 96 32V480C96 497.6 110.4 512 128 512H448C465.6 512 480 497.6 480 480V128L352 0H128Z" fill="#E2E5E7"/>
<path d="M384 128H480L352 0V96C352 113.6 366.4 128 384 128Z" fill="#B0B7BD"/>
<path d="M480 224L384 128H480V224Z" fill="#CAD1D8"/>
<path d="M416 416C416 424.8 408.8 432 400 432H48C39.2 432 32 424.8 32 416V256C32 247.2 39.2 240 48 240H400C408.8 240 416 247.2 416 256V416Z" fill="#50BEE8"/>
<path d="M103.574 298.953C103.574 288.201 120.47 288.201 120.47 298.953V349.481C120.47 369.577 110.87 381.737 88.7425 381.737C77.8625 381.737 68.7905 378.777 60.8545 368.553C54.3265 360.745 66.6145 349.497 73.2705 357.673C78.6465 364.329 84.4065 365.865 90.0225 365.609C97.1745 365.353 103.462 362.137 103.59 349.481V298.953H103.574Z" fill="white"/>
<path d="M142.951 298.951C142.951 294.727 146.279 290.119 151.655 290.119H181.207C197.847 290.119 212.823 301.255 212.823 322.599C212.823 342.823 197.847 354.087 181.207 354.087H159.847V370.983C159.847 376.615 156.263 379.799 151.655 379.799C147.431 379.799 142.951 376.615 142.951 370.983V298.951ZM159.847 306.231V338.103H181.207C189.783 338.103 196.567 330.535 196.567 322.599C196.567 313.655 189.783 306.231 181.207 306.231H159.847Z" fill="white"/>
<path d="M380.408 369.96C371.32 377.512 360.184 380.712 348.936 380.712C322.056 380.712 303 365.368 303 334.904C303 309.08 323.096 289 350.072 289C360.184 289 371.304 292.44 379.24 300.248C387.032 307.912 375.784 319.304 368.12 312.536C363.384 307.928 356.728 304.472 350.072 304.472C334.6 304.472 319.64 316.872 319.64 334.904C319.64 353.848 332.168 365.368 348.936 365.368C356.728 365.368 363.384 363.048 368.12 359.608V343.88H348.936C337.544 343.88 338.696 328.264 348.936 328.264H374.52C379.256 328.264 383.592 331.848 383.592 335.816V363.064C383.592 365.368 382.584 367.512 380.408 369.96Z" fill="white"/>
<path d="M400 432H96V448H400C408.8 448 416 440.8 416 432V416C416 424.8 408.8 432 400 432Z" fill="#CAD1D8"/>
<path d="M232.867 380.951C232.029 380.951 231.317 380.658 230.731 380.072C230.145 379.485 229.852 378.773 229.852 377.936V296.141C229.852 295.22 230.103 294.466 230.605 293.88C231.192 293.293 231.946 293 232.867 293H288.151C289.072 293 289.826 293.293 290.412 293.88C290.999 294.466 291.292 295.22 291.292 296.141V304.434C291.292 305.355 290.999 306.109 290.412 306.695C289.826 307.198 289.072 307.449 288.151 307.449H246.814V329.688H285.386C286.308 329.688 287.062 329.981 287.648 330.568C288.234 331.07 288.528 331.782 288.528 332.704V340.494C288.528 341.415 288.234 342.169 287.648 342.755C287.062 343.258 286.308 343.509 285.386 343.509H246.814V366.502H289.156C290.077 366.502 290.831 366.795 291.417 367.382C292.004 367.968 292.297 368.722 292.297 369.643V377.936C292.297 378.857 292.004 379.611 291.417 380.197C290.831 380.7 290.077 380.951 289.156 380.951H232.867Z" fill="white"/>
</svg>