<svg width="643" height="479" viewBox="0 0 643 479" fill="none" xmlns="http://www.w3.org/2000/svg">
<path d="M643 420.938H0V421.259H643V420.938Z" fill="#EBEBEB"/>
<path d="M578.571 441.625H550.691V441.946H578.571V441.625Z" fill="#EBEBEB"/>
<path d="M443.245 434.965H399.38V435.286H443.245V434.965Z" fill="#EBEBEB"/>
<path d="M567.28 429.693H510.015V430.015H567.28V429.693Z" fill="#EBEBEB"/>
<path d="M222.504 436.173H208.178V436.495H222.504V436.173Z" fill="#EBEBEB"/>
<path d="M196.72 436.173H147.35V436.495H196.72V436.173Z" fill="#EBEBEB"/>
<path d="M120.897 430.748H85.2749V431.069H120.897V430.748Z" fill="#EBEBEB"/>
<path d="M304.782 363.596H56.4684C54.5231 363.592 52.6587 362.817 51.2844 361.441C49.9101 360.064 49.1382 358.199 49.1382 356.254V7.27705C49.1551 5.3434 49.9345 3.4945 51.3069 2.13197C52.6794 0.769437 54.5342 0.00331246 56.4684 0H304.782C306.73 0 308.597 0.773461 309.974 2.15023C311.352 3.527 312.125 5.39429 312.125 7.34134V356.254C312.125 358.201 311.352 360.069 309.974 361.445C308.597 362.822 306.73 363.596 304.782 363.596ZM56.4684 0.257141C54.6084 0.260547 52.8257 1.00164 51.5117 2.31776C50.1977 3.63388 49.4597 5.41748 49.4597 7.27705V356.254C49.4597 358.114 50.1977 359.897 51.5117 361.214C52.8257 362.53 54.6084 363.271 56.4684 363.274H304.782C306.643 363.271 308.427 362.53 309.743 361.214C311.059 359.899 311.8 358.115 311.804 356.254V7.27705C311.8 5.4163 311.059 3.63273 309.743 2.31698C308.427 1.00123 306.643 0.260539 304.782 0.257141H56.4684Z" fill="#EBEBEB"/>
<path d="M582.957 363.596H334.63C332.684 363.592 330.818 362.818 329.442 361.442C328.065 360.066 327.291 358.2 327.287 356.254V7.27705C327.307 5.34222 328.09 3.49334 329.464 2.13116C330.839 0.768987 332.695 0.00327633 334.63 0H582.957C584.889 0.00669141 586.74 0.774311 588.11 2.13648C589.48 3.49865 590.257 5.34562 590.274 7.27705V356.254C590.274 358.197 589.504 360.06 588.132 361.436C586.761 362.812 584.9 363.589 582.957 363.596ZM334.63 0.257141C332.769 0.260539 330.985 1.00123 329.669 2.31698C328.353 3.63273 327.612 5.4163 327.609 7.27705V356.254C327.612 358.115 328.353 359.899 329.669 361.214C330.985 362.53 332.769 363.271 334.63 363.274H582.957C584.818 363.271 586.602 362.53 587.918 361.214C589.234 359.899 589.975 358.115 589.978 356.254V7.27705C589.975 5.4163 589.234 3.63273 587.918 2.31698C586.602 1.00123 584.818 0.260539 582.957 0.257141H334.63Z" fill="#EBEBEB"/>
<path d="M277.866 187.558L278.445 170.664L268.08 167.27C267.634 161.544 266.705 155.867 265.302 150.298L274.098 143.87L268.131 128.004L257.252 128.879C254.672 123.767 251.661 118.885 248.25 114.286L253.882 104.887L242.308 92.5318L232.586 97.5075C228.214 93.7714 223.543 90.4001 218.62 87.4276L220.189 76.6277L204.757 69.6336L197.684 77.9134C192.228 76.1684 186.636 74.8783 180.966 74.0563L178.394 63.4751L161.445 62.8965L158.101 73.2721C152.38 73.7217 146.706 74.6464 141.139 76.0363L134.606 67.2936L118.737 73.2206L119.611 84.0977C114.501 86.7158 109.619 89.7563 105.015 93.1875L95.5501 87.4276L83.1402 98.9989L88.117 108.77C84.3791 113.119 81.0231 117.782 78.0862 122.707L67.2967 121.087L60.2494 136.516L68.5827 143.574C66.8248 149.026 65.5342 154.617 64.7247 160.288L54.0123 162.975L53.4336 179.869L63.8502 183.264C64.2811 188.985 65.2061 194.659 66.6151 200.222L57.8189 206.65L63.7988 222.529L74.6783 221.655C77.2512 226.77 80.2632 231.652 83.6803 236.247L78.0348 245.646L89.6088 258.001L99.3309 253.026C103.691 256.761 108.354 260.128 113.271 263.093L111.651 273.88L127.083 280.887L134.194 272.607C139.651 274.368 145.242 275.679 150.912 276.528L153.484 287.109L170.434 287.688L173.777 277.312C179.502 276.858 185.18 275.933 190.753 274.548L197.183 283.291L213.052 277.364L212.229 266.487C217.33 263.852 222.211 260.812 226.825 257.397L236.174 263.028L248.584 251.457L243.607 241.686C247.346 237.338 250.702 232.675 253.638 227.749L264.428 229.369L271.475 213.94L263.142 206.869C264.929 201.421 266.241 195.829 267.064 190.155L277.866 187.558ZM163.682 242.29C150.421 241.842 137.591 237.472 126.814 229.733C116.037 221.994 107.798 211.233 103.14 198.811C98.4809 186.39 97.6117 172.867 100.642 159.951C103.672 147.036 110.466 135.31 120.163 126.255C129.86 117.2 142.026 111.225 155.121 109.083C168.216 106.942 181.651 108.732 193.729 114.226C205.806 119.721 215.982 128.673 222.97 139.95C229.958 151.227 233.443 164.323 232.985 177.581C232.375 195.349 224.731 212.147 211.735 224.281C198.739 236.416 181.455 242.894 163.682 242.29Z" fill="#EBEBEB"/>
<path d="M567.126 131.681L571.383 127.709L569.698 124.353C570.983 122.849 572.14 121.241 573.157 119.544L576.887 120.097L579.292 114.774L576.437 112.344C577.052 110.462 577.503 108.531 577.787 106.572L581.452 105.659L581.632 99.8217L578.057 98.6646C577.9 96.6877 577.582 94.7269 577.105 92.8018L580.127 90.5518L578.07 85.0876L574.328 85.3833C573.425 83.621 572.38 81.9354 571.203 80.3434L573.144 77.1291L569.145 72.8606L565.801 74.5706C564.295 73.2887 562.687 72.132 560.992 71.1121L561.532 67.3836L556.221 64.9536L553.777 67.8207C551.891 67.2336 549.96 66.8035 548.003 66.535L547.09 62.8836L541.252 62.665L540.081 66.265C538.112 66.4155 536.158 66.7338 534.243 67.2164L532.005 64.195L526.527 66.2393L526.836 69.9935C525.068 70.8869 523.381 71.9323 521.794 73.1178L518.554 71.1764L514.284 75.1492L515.943 78.4277C514.649 79.927 513.487 81.5359 512.471 83.2362L508.754 82.6834L506.337 88.0062L509.205 90.449C508.61 92.3282 508.18 94.2554 507.919 96.2089L504.241 97.1218L504.061 102.959L507.648 104.116C507.795 106.093 508.109 108.055 508.587 109.979L505.552 112.216L507.61 117.68L511.365 117.397C512.268 119.16 513.313 120.845 514.49 122.437L512.548 125.651L516.548 129.92L519.891 128.21C521.394 129.496 523.003 130.653 524.701 131.668L524.148 135.384L529.472 137.814L531.915 134.96C533.803 135.541 535.734 135.971 537.689 136.246L538.603 139.897L544.441 140.116L545.611 136.516C547.581 136.366 549.534 136.048 551.45 135.564L553.687 138.586L559.166 136.541L558.87 132.787C560.633 131.892 562.315 130.847 563.898 129.663L567.126 131.681ZM536.751 107.086C535.628 105.883 534.887 104.374 534.622 102.75C534.357 101.126 534.58 99.4594 535.262 97.9619C535.944 96.4644 537.055 95.2029 538.455 94.3369C539.855 93.4709 541.48 93.0394 543.125 93.097C544.77 93.1546 546.361 93.6987 547.696 94.6604C549.032 95.6221 550.052 96.9582 550.628 98.4998C551.204 100.041 551.31 101.719 550.932 103.321C550.554 104.922 549.709 106.376 548.505 107.497C547.705 108.251 546.765 108.838 545.737 109.226C544.709 109.613 543.614 109.793 542.516 109.755C541.418 109.717 540.339 109.461 539.34 109.003C538.342 108.545 537.444 107.893 536.699 107.086H536.751Z" fill="#EBEBEB"/>
<path d="M411.52 305.148L398.223 295.955C396.919 291.168 395.127 286.528 392.873 282.108L396.281 268.737L376.991 248.089L363.411 250.57C359.15 248.018 354.638 245.911 349.946 244.283L341.69 230.384L313.398 229.42L304.216 242.714C299.434 244.017 294.797 245.804 290.379 248.05L277.004 244.643L256.351 263.928L258.833 277.48C256.283 281.748 254.18 286.267 252.558 290.967L238.656 299.221L237.691 327.506L251.001 336.686C252.283 341.499 254.072 346.162 256.338 350.597L252.892 363.853L272.182 384.501L285.672 382.033C289.964 384.587 294.506 386.698 299.226 388.333L307.47 402.205L335.762 403.182L344.931 389.888C349.756 388.585 354.436 386.793 358.897 384.54L372.194 387.934L392.86 368.648L390.378 355.097C392.936 350.829 395.039 346.304 396.654 341.597L410.556 333.343L411.52 305.148ZM323.493 348.077C317.213 347.863 311.136 345.791 306.033 342.124C300.93 338.457 297.029 333.36 294.823 327.477C292.618 321.593 292.206 315.188 293.641 309.071C295.077 302.954 298.294 297.4 302.886 293.111C307.478 288.822 313.239 285.99 319.441 284.975C325.643 283.959 332.007 284.804 337.728 287.404C343.449 290.004 348.271 294.241 351.583 299.58C354.896 304.92 356.55 311.121 356.338 317.401C356.043 325.822 352.417 333.783 346.257 339.534C340.096 345.286 331.905 348.358 323.48 348.077H323.493Z" fill="#EBEBEB"/>
<path d="M441.805 224.997H441.715L419.442 224.239C418.991 224.231 418.549 224.108 418.158 223.884C417.766 223.659 417.438 223.339 417.204 222.953L411.198 212.86C407.961 211.677 404.83 210.223 401.836 208.515L392.23 210.173C391.782 210.255 391.321 210.223 390.89 210.079C390.458 209.935 390.07 209.684 389.761 209.35L374.547 193.073C374.228 192.736 374.001 192.323 373.889 191.872C373.776 191.422 373.781 190.95 373.904 190.502L376.335 180.975C374.829 177.888 373.598 174.674 372.657 171.371L362.973 164.685C362.598 164.428 362.294 164.079 362.089 163.672C361.884 163.265 361.786 162.813 361.803 162.358L362.562 140.09C362.577 139.64 362.702 139.201 362.926 138.811C363.151 138.421 363.467 138.092 363.848 137.853L373.969 131.849C375.136 128.62 376.586 125.501 378.303 122.527L376.528 112.846C376.445 112.396 376.477 111.933 376.621 111.5C376.765 111.066 377.016 110.675 377.351 110.365L393.632 95.1676C393.968 94.8472 394.382 94.6186 394.832 94.5038C395.282 94.389 395.755 94.3918 396.204 94.5118L405.772 96.9547C408.852 95.4484 412.057 94.2137 415.352 93.2647L422.039 83.5834C422.288 83.1989 422.635 82.8877 423.044 82.682C423.453 82.4763 423.91 82.3836 424.367 82.4134L446.628 83.1848C447.08 83.1944 447.523 83.3171 447.916 83.5417C448.31 83.7662 448.64 84.0856 448.878 84.4705L454.884 94.5761C458.098 95.7558 461.204 97.2097 464.169 98.9218L473.891 97.1347C474.339 97.0516 474.8 97.0835 475.232 97.2274C475.664 97.3713 476.052 97.6225 476.36 97.9575L491.573 114.234C491.891 114.573 492.116 114.987 492.229 115.437C492.341 115.887 492.337 116.358 492.216 116.806L489.773 126.359C491.28 129.44 492.519 132.644 493.477 135.937L503.147 142.623C503.523 142.88 503.827 143.229 504.032 143.636C504.236 144.043 504.335 144.495 504.318 144.95L503.559 167.205C503.544 167.657 503.419 168.097 503.195 168.489C502.97 168.881 502.654 169.213 502.273 169.455L492.152 175.459C490.977 178.681 489.527 181.795 487.818 184.768L489.593 194.462C489.676 194.91 489.644 195.371 489.5 195.803C489.356 196.234 489.105 196.622 488.77 196.931L472.386 212.14C472.049 212.46 471.635 212.686 471.185 212.799C470.734 212.912 470.262 212.906 469.814 212.783L460.298 210.353C457.197 211.853 453.975 213.087 450.666 214.043L444.043 223.712C443.804 224.093 443.475 224.41 443.085 224.635C442.695 224.859 442.255 224.983 441.805 224.997ZM421.113 218.865L440.403 219.52L446.833 210.276C447.19 209.737 447.736 209.351 448.364 209.196C451.983 208.207 455.494 206.859 458.845 205.172C459.429 204.891 460.093 204.822 460.722 204.979L469.724 207.28L483.87 194.102L482.25 184.806C482.125 184.157 482.244 183.484 482.584 182.916C484.494 179.733 486.067 176.359 487.278 172.849C487.483 172.213 487.912 171.674 488.487 171.332L498.171 165.598L498.826 146.313L489.567 139.884C489.08 139.551 488.714 139.068 488.526 138.508C488.526 138.444 488.526 138.367 488.526 138.29C487.535 134.736 486.191 131.29 484.513 128.004C484.216 127.416 484.143 126.74 484.308 126.101L486.622 116.999L473.441 102.856L464.194 104.553C463.549 104.67 462.883 104.552 462.317 104.219C459.126 102.305 455.748 100.724 452.235 99.5004C452.033 99.4358 451.839 99.3496 451.656 99.2432C451.285 99.012 450.977 98.6943 450.756 98.3175L444.956 88.6105L425.666 87.9419L419.236 97.2118C418.852 97.7553 418.287 98.143 417.641 98.3047C414.06 99.2832 410.587 100.623 407.276 102.303C406.692 102.601 406.02 102.674 405.386 102.509L396.281 100.195L382.135 113.373L383.832 122.592C383.933 123.173 383.847 123.771 383.588 124.301L383.459 124.52C381.547 127.716 379.974 131.103 378.766 134.626C378.553 135.23 378.134 135.74 377.582 136.066L367.899 141.813L367.243 161.098L376.515 167.527C377.044 167.888 377.427 168.426 377.595 169.044C378.559 172.654 379.9 176.153 381.595 179.484C381.687 179.673 381.76 179.871 381.813 180.075C381.91 180.498 381.91 180.938 381.813 181.361L379.499 190.361L392.68 204.503L401.862 202.819C402.504 202.702 403.166 202.82 403.727 203.153C406.942 205.063 410.341 206.644 413.873 207.872C414.511 208.061 415.05 208.49 415.378 209.068L421.113 218.865ZM433.035 194.475C432.559 194.475 432.083 194.475 431.607 194.475C420.917 194.287 410.733 189.885 403.273 182.227C395.814 174.569 391.681 164.275 391.775 153.586C391.869 142.897 396.182 132.678 403.776 125.152C411.37 117.627 421.629 113.405 432.321 113.405C443.013 113.405 453.272 117.627 460.866 125.152C468.46 132.678 472.773 142.897 472.867 153.586C472.961 164.275 468.828 174.569 461.368 182.227C453.909 189.885 443.725 194.287 433.035 194.475ZM433.035 118.503C423.693 118.664 414.792 122.508 408.271 129.198C401.751 135.888 398.137 144.883 398.218 154.224C398.298 163.565 402.066 172.496 408.701 179.073C415.337 185.65 424.302 189.34 433.646 189.34C442.989 189.34 451.954 185.65 458.59 179.073C465.225 172.496 468.993 163.565 469.074 154.224C469.154 144.883 465.541 135.888 459.02 129.198C452.499 122.508 443.599 118.664 434.256 118.503H433.035Z" fill="#EBEBEB"/>
<path d="M493.104 64.6963L483.871 62.2278L481.401 52.9964L485.015 49.3965L488.822 57.2778L496.718 61.0963L493.104 64.6963Z" fill="#E0E0E0"/>
<path d="M493.67 58.5252C494.069 58.1259 494.386 57.6518 494.602 57.1301C494.818 56.6084 494.929 56.0492 494.929 55.4845C494.929 54.9198 494.818 54.3606 494.602 53.8389C494.386 53.3172 494.069 52.8431 493.67 52.4438C493.27 52.0445 492.796 51.7278 492.274 51.5117C491.752 51.2956 491.193 51.1843 490.628 51.1843C490.063 51.1843 489.504 51.2956 488.982 51.5117C488.46 51.7278 487.986 52.0445 487.587 52.4438L492.178 45.5525L498.325 48.6639L499.675 55.0924L493.67 58.5252Z" fill="#E0E0E0"/>
<path d="M484.282 50.1424L491.046 43.3796L500.254 45.8353L502.736 55.0538L495.972 61.8166L486.751 59.3352L484.282 50.1424ZM496.563 55.6709C497.165 55.0684 497.575 54.3009 497.741 53.4656C497.907 52.6302 497.821 51.7644 497.495 50.9776C497.169 50.1909 496.617 49.5184 495.908 49.0454C495.2 48.5723 494.367 48.3198 493.515 48.3198C492.663 48.3198 491.831 48.5723 491.122 49.0454C490.414 49.5184 489.862 50.1909 489.535 50.9776C489.209 51.7644 489.124 52.6302 489.29 53.4656C489.455 54.3009 489.865 55.0684 490.467 55.6709C491.282 56.4699 492.379 56.9154 493.521 56.9106C494.662 56.9058 495.755 56.4511 496.563 55.6452V55.6709Z" fill="#F0F0F0"/>
<path d="M116.023 310.765L120.974 309.428L122.299 304.479L120.37 302.551L118.325 306.78L114.081 308.824L116.023 310.765Z" fill="#E0E0E0"/>
<path d="M115.74 307.449C115.353 307.007 115.149 306.435 115.168 305.848C115.187 305.261 115.429 304.703 115.845 304.288C116.26 303.873 116.818 303.631 117.405 303.612C117.992 303.592 118.564 303.796 119.006 304.183L116.55 300.494L113.168 302.139L112.448 305.61L115.74 307.449Z" fill="#E0E0E0"/>
<path d="M120.756 302.936L117.129 299.311L112.178 300.596L110.892 305.546L114.454 309.21L119.405 307.924L120.756 302.936ZM114.171 305.906C113.933 305.697 113.74 305.442 113.604 305.155C113.469 304.869 113.393 304.558 113.383 304.241C113.372 303.925 113.427 303.609 113.543 303.315C113.66 303.02 113.835 302.752 114.059 302.528C114.284 302.304 114.551 302.129 114.846 302.012C115.141 301.896 115.456 301.841 115.773 301.852C116.09 301.862 116.401 301.938 116.687 302.073C116.974 302.209 117.229 302.402 117.438 302.64C117.825 303.082 118.029 303.654 118.01 304.241C117.99 304.828 117.748 305.386 117.333 305.801C116.918 306.216 116.36 306.458 115.773 306.477C115.186 306.497 114.613 306.292 114.171 305.906Z" fill="#F0F0F0"/>
<path d="M98.1989 39.419L102.314 43.5329C102.829 44.0386 103.521 44.3219 104.243 44.3219C104.965 44.3219 105.657 44.0386 106.172 43.5329C106.675 43.0168 106.956 42.3249 106.956 41.6045C106.956 40.8842 106.675 40.1922 106.172 39.6761L102.07 35.5751C101.553 35.0725 100.861 34.7913 100.141 34.7913C99.4201 34.7913 98.728 35.0725 98.2117 35.5751C97.7081 36.0873 97.4248 36.7762 97.4224 37.4944C97.42 38.2127 97.6987 38.9034 98.1989 39.419Z" fill="#F0F0F0"/>
<path d="M95.3051 29.1984C96.379 28.8999 97.5167 28.9213 98.5785 29.2602C99.6403 29.599 100.58 30.2404 101.282 31.1057C101.984 31.9709 102.419 33.0223 102.532 34.1308C102.644 35.2394 102.431 36.3567 101.918 37.3456C101.404 38.3346 100.613 39.1521 99.6412 39.6979C98.6695 40.2436 97.5595 40.4938 96.4475 40.4177C95.3355 40.3416 94.2699 39.9426 93.3817 39.2695C92.4934 38.5965 91.821 37.6788 91.4471 36.6291C91.2098 35.8881 91.1214 35.1074 91.187 34.332C91.2527 33.5567 91.4711 32.802 91.8297 32.1113C92.1882 31.4207 92.6799 30.8078 93.2764 30.3079C93.8729 29.8079 94.5623 29.4309 95.3051 29.1984Z" fill="#E0E0E0"/>
<path d="M90.8302 35.9413L91.4258 37.5989L103.649 33.2087L103.054 31.5512L90.8302 35.9413Z" fill="#F0F0F0"/>
<path d="M321.5 479C459.208 479 570.842 472.484 570.842 464.446C570.842 456.408 459.208 449.892 321.5 449.892C183.792 449.892 72.1572 456.408 72.1572 464.446C72.1572 472.484 183.792 479 321.5 479Z" fill="#BDBDBD"/>
<path d="M111.522 84.4061C110.236 78.7362 110.802 73.9791 113.245 70.0963C115.688 66.2135 119.675 63.6678 125.346 62.3821C131.018 61.0964 135.917 61.6107 139.749 64.0021C143.582 66.3935 146.179 70.4305 147.465 75.9591C148.373 79.3713 148.448 82.9517 147.684 86.3989C146.936 89.2618 145.357 91.8389 143.144 93.8045C140.517 96.0162 137.363 97.5129 133.988 98.1502C130.68 99.0284 127.215 99.1471 123.854 98.4973C120.933 97.7875 118.291 96.2204 116.267 93.9974C113.849 91.2864 112.21 87.9724 111.522 84.4061ZM122.247 82.0147C123.044 85.5118 124.266 87.8775 125.912 89.1117C126.762 89.6782 127.717 90.067 128.721 90.2548C129.725 90.4425 130.756 90.4254 131.754 90.2044C132.751 89.9834 133.693 89.5632 134.523 88.9688C135.354 88.3745 136.055 87.6184 136.586 86.7461C137.512 84.9589 137.525 82.1175 136.65 78.2476C135.904 74.9819 134.7 72.7448 133.037 71.5362C132.199 70.9354 131.238 70.5299 130.223 70.3496C129.208 70.1694 128.166 70.219 127.172 70.4948C126.178 70.681 125.239 71.09 124.426 71.6913C123.613 72.2926 122.947 73.0704 122.478 73.9662C121.527 75.8562 121.437 78.4276 122.247 82.0147Z" fill="#012D8E"/>
<path d="M152.507 80.1634C152.05 78.4113 151.968 76.5825 152.268 74.7967C152.567 73.0109 153.24 71.3084 154.243 69.8007C155.367 68.1989 156.797 66.8349 158.45 65.7869C160.103 64.7389 161.946 64.0275 163.875 63.6936C168.907 62.5536 173.04 63.1493 176.272 65.4807C178.992 67.5889 180.841 70.6238 181.467 74.0072C182.093 77.3907 181.453 80.8862 179.667 83.8277C177.661 86.8876 174.394 88.9276 169.868 89.9476C166.38 90.9224 162.659 90.6215 159.374 89.099C157.617 88.2406 156.083 86.9872 154.891 85.4369C153.7 83.8867 152.884 82.0817 152.507 80.1634ZM162.164 77.9392C162.425 79.7358 163.302 81.3859 164.646 82.6063C165.179 83.0095 165.794 83.2919 166.447 83.4338C167.1 83.5758 167.776 83.5739 168.428 83.4283C169.08 83.2828 169.693 82.9969 170.224 82.5908C170.754 82.1846 171.19 81.6678 171.501 81.0763C172.174 79.3493 172.238 77.4443 171.681 75.6763C171.41 73.9219 170.543 72.3143 169.225 71.125C168.713 70.7103 168.113 70.4193 167.47 70.2743C166.828 70.1294 166.161 70.1345 165.521 70.2893C164.854 70.4275 164.227 70.7159 163.687 71.1324C163.148 71.549 162.711 72.0829 162.409 72.6935C161.716 74.3597 161.63 76.2159 162.164 77.9392Z" fill="#012D8E"/>
<path d="M191.074 94.5891L183.191 59.8753L192.193 57.8182L193.042 61.5338C193.677 60.052 194.599 58.7105 195.755 57.5867C197.024 56.51 198.539 55.7636 200.166 55.4139C201.67 55.005 203.252 54.9815 204.767 55.3456C206.282 55.7096 207.68 56.4494 208.834 57.4967C211.375 59.8722 213.1 62.9912 213.759 66.4066C214.711 70.5851 214.428 74.0051 212.936 76.6922C212.227 77.977 211.246 79.0921 210.062 79.9601C208.879 80.8282 207.521 81.4284 206.082 81.7193C204.695 82.0479 203.259 82.1046 201.851 81.8864C200.501 81.6499 199.214 81.1379 198.07 80.3822L200.796 92.3777L191.074 94.5891ZM195.717 70.3409C195.953 71.9466 196.756 73.415 197.98 74.4808C198.471 74.8566 199.041 75.1166 199.646 75.2413C200.252 75.366 200.878 75.3521 201.478 75.2008C202.035 75.0892 202.558 74.8484 203.004 74.4978C203.451 74.1472 203.809 73.6966 204.05 73.1822C204.597 71.5731 204.597 69.8286 204.05 68.2194C203.815 66.6056 203.04 65.1191 201.851 64.0024C201.41 63.6362 200.891 63.3762 200.333 63.2424C199.776 63.1087 199.195 63.1047 198.636 63.2309C198.045 63.3585 197.491 63.6178 197.014 63.9896C196.537 64.3614 196.151 64.836 195.884 65.3781C195.254 66.9629 195.195 68.7172 195.717 70.3409Z" fill="#012D8E"/>
<path d="M217.887 71.0987L227.249 68.0258C227.747 68.9307 228.522 69.6518 229.461 70.083C230.471 70.3754 231.54 70.3988 232.562 70.1507C233.584 69.9026 234.523 69.3917 235.286 68.6687C235.5 68.4418 235.655 68.1663 235.738 67.8661C235.82 67.5659 235.829 67.25 235.762 66.9458C235.685 66.5978 235.505 66.2808 235.246 66.0356C234.987 65.7905 234.661 65.6284 234.309 65.5701C232.856 65.4107 231.39 65.4107 229.937 65.5701C227.498 65.7775 225.045 65.7775 222.606 65.5701C221.179 65.363 219.84 64.7518 218.748 63.8087C217.584 62.8011 216.779 61.4415 216.457 59.9359C216.134 58.4303 216.311 56.8607 216.961 55.4646C217.711 53.9706 218.876 52.725 220.317 51.8775C222.369 50.7123 224.597 49.8915 226.914 49.4475C229.126 48.8473 231.413 48.5702 233.705 48.6246C235.143 48.7173 236.538 49.1585 237.768 49.9103C239.079 50.7944 240.192 51.9416 241.035 53.2789L232.033 56.2488C231.696 55.579 231.137 55.0471 230.451 54.7446C229.513 54.4091 228.496 54.3643 227.532 54.616C226.68 54.7347 225.89 55.1273 225.281 55.7345C225.088 55.9415 224.948 56.1927 224.874 56.4661C224.8 56.7395 224.794 57.0269 224.857 57.3031C224.927 57.6071 225.087 57.8829 225.316 58.094C225.546 58.3052 225.834 58.4418 226.143 58.4859C227.581 58.6528 229.034 58.6225 230.464 58.3959C232.944 58.0367 235.46 58.0021 237.948 58.2931C239.514 58.5142 240.98 59.1891 242.166 60.2345C243.239 61.2067 243.984 62.4865 244.301 63.8987C244.631 65.4131 244.51 66.9906 243.954 68.4373C243.274 70.1499 242.09 71.6159 240.559 72.6415C238.303 74.1157 235.776 75.1253 233.126 75.6114C228.539 76.6572 225.11 76.7471 222.838 75.8814C220.624 74.9977 218.846 73.2801 217.887 71.0987Z" fill="#012D8E"/>
<path d="M249.291 39.304H259.849V47.4039L257.907 63.6937H251.374L249.291 47.4296V39.304ZM249.805 66.1493H259.656V74.8664H249.805V66.1493Z" fill="#012D8E"/>
<path d="M165.483 149.887H165.251C159.464 147.637 156.005 145.451 154.204 142.816C152.795 143.083 151.337 142.884 150.051 142.25C148.544 141.512 147.293 140.339 146.463 138.881C146.026 139.216 145.512 139.436 144.968 139.519C144.424 139.602 143.867 139.546 143.351 139.357C141.766 138.764 140.413 137.678 139.493 136.258C138.917 136.687 138.201 136.885 137.486 136.811C133.628 136.503 128.484 128.891 128.111 120.792C128.108 120.621 128.17 120.455 128.284 120.328C128.399 120.201 128.558 120.123 128.729 120.11C128.813 120.107 128.898 120.12 128.977 120.149C129.056 120.178 129.129 120.223 129.191 120.28C129.253 120.337 129.303 120.406 129.339 120.483C129.374 120.56 129.394 120.643 129.397 120.727C129.758 128.441 134.683 135.294 137.602 135.526C137.815 135.549 138.03 135.531 138.235 135.472C138.44 135.412 138.632 135.312 138.798 135.178C137.792 133.345 137.161 131.331 136.94 129.252C136.719 127.173 136.914 125.071 137.512 123.067C138.618 119.21 139.595 117.693 140.779 117.924C142.991 118.477 142.695 126.924 141.524 132.44C141.347 133.435 140.98 134.386 140.444 135.243C141.202 136.514 142.347 137.509 143.711 138.084C144.074 138.223 144.47 138.254 144.85 138.174C145.231 138.094 145.581 137.907 145.858 137.634C144.855 135.153 144.572 131.759 146.013 127.439C147.813 121.743 148.585 121.589 148.983 121.486C149.133 121.454 149.289 121.464 149.434 121.514C149.579 121.564 149.707 121.652 149.806 121.769C151.002 123.119 149.575 131.964 148.083 136.336C147.908 136.862 147.666 137.363 147.363 137.827C148.053 139.218 149.177 140.346 150.565 141.041C151.476 141.484 152.488 141.675 153.497 141.594C153.381 141.35 153.279 141.106 153.176 140.848C152.16 138.084 152.661 134.908 154.706 131.103C156.056 128.596 157.162 127.413 158.191 127.413C158.464 127.417 158.73 127.498 158.958 127.649C159.186 127.799 159.366 128.012 159.477 128.261C160.596 130.331 159.786 137.158 157.574 140.553C157.056 141.331 156.336 141.953 155.49 142.353C157.214 144.616 160.493 146.608 165.778 148.64C165.858 148.668 165.93 148.712 165.992 148.77C166.054 148.827 166.104 148.896 166.139 148.972C166.174 149.049 166.193 149.132 166.195 149.216C166.197 149.3 166.182 149.384 166.151 149.463C166.101 149.597 166.009 149.71 165.888 149.787C165.768 149.864 165.625 149.899 165.483 149.887ZM158.178 128.711C158.178 128.711 157.445 128.711 155.825 131.733C153.96 135.178 153.484 138.02 154.372 140.411C154.479 140.707 154.608 140.995 154.757 141.273C155.454 140.985 156.046 140.492 156.455 139.858C158.255 137.107 159.117 131.45 158.448 129.239C158.358 128.789 158.178 128.711 158.178 128.711ZM148.945 123.299C148.249 124.762 147.672 126.28 147.221 127.837C146.235 130.535 146.065 133.464 146.733 136.258L146.849 135.924C148.199 131.849 148.919 127.591 148.983 123.299H148.945ZM140.483 119.249C140.264 119.442 139.634 120.252 138.747 123.389C137.697 126.909 138.028 130.697 139.673 133.983C139.936 133.408 140.131 132.804 140.251 132.183C141.627 125.87 141.242 120.162 140.521 119.249H140.483Z" fill="#263238"/>
<path d="M214.376 217.283C212.32 217.303 210.296 216.775 208.512 215.753C208.365 215.665 208.259 215.523 208.216 215.357C208.172 215.191 208.196 215.015 208.281 214.866C208.323 214.794 208.38 214.73 208.447 214.68C208.514 214.63 208.59 214.593 208.672 214.573C208.753 214.552 208.838 214.548 208.921 214.561C209.004 214.574 209.084 214.603 209.155 214.647C213.746 217.335 219.675 215.457 220.896 213.49C220.985 213.367 221.047 213.227 221.08 213.079C221.113 212.931 221.116 212.778 221.089 212.629C218.742 212.764 216.417 212.102 214.492 210.752C211.213 208.708 210.956 208.09 210.981 207.602C210.988 207.461 211.031 207.325 211.108 207.208C211.185 207.09 211.292 206.995 211.419 206.933C212.705 206.29 218.504 208.952 220.922 210.546C221.212 210.739 221.479 210.963 221.719 211.215C222.669 210.999 223.526 210.486 224.163 209.749C224.521 209.328 224.781 208.831 224.922 208.296H224.664C222.607 208.502 220.549 207.615 218.35 205.583C216.833 204.195 216.254 203.23 216.447 202.472C216.505 202.259 216.623 202.067 216.788 201.919C216.952 201.771 217.155 201.673 217.373 201.636C219.147 201.186 223.546 203.063 225.333 205.03C225.732 205.458 226.015 205.98 226.156 206.548C227.841 205.763 229.615 203.976 231.712 201.058C231.76 200.988 231.822 200.929 231.894 200.883C231.966 200.838 232.046 200.807 232.13 200.793C232.213 200.779 232.299 200.781 232.382 200.8C232.464 200.819 232.543 200.854 232.612 200.903C232.75 201.004 232.843 201.154 232.871 201.322C232.9 201.49 232.862 201.663 232.766 201.803C230.336 205.198 228.304 207.126 226.272 207.91C226.167 208.861 225.777 209.757 225.153 210.482C224.412 211.343 223.439 211.972 222.35 212.295C222.411 212.602 222.41 212.917 222.349 213.224C222.287 213.531 222.165 213.822 221.989 214.082C220.909 215.92 217.797 217.283 214.376 217.283ZM213.232 208.36C213.669 208.682 214.286 209.106 215.174 209.646C216.556 210.579 218.145 211.161 219.803 211.343C217.733 210.102 215.529 209.102 213.232 208.36ZM217.72 202.896C218.089 203.592 218.602 204.201 219.225 204.683C221.128 206.445 222.864 207.255 224.536 207.049H224.947C224.856 206.65 224.661 206.282 224.381 205.982C222.581 203.95 218.62 202.69 217.72 202.896Z" fill="#263238"/>
<path d="M231.403 215.522L211.367 219.16L193.17 119.879L154.513 126.899L91.499 238.754L98.2634 275.667L179.088 260.997L184.618 291.185L223.275 284.139L217.746 253.951L237.782 250.313L231.403 215.522ZM130.002 233.997L163.438 175.408L172.761 226.244L130.002 233.997Z" fill="#012D8E"/>
<path d="M392.783 113.142C392.174 106.9 390.792 100.759 388.668 94.859C386.482 89.2073 383.447 83.9222 379.666 79.1864C375.19 73.6767 369.631 69.1433 363.333 65.8665C356.475 62.1037 347.378 59.4852 336.044 58.0109C312.511 54.9424 294.172 59.1166 281.029 70.5336C267.887 81.9506 259.227 103.807 255.052 136.104C253.385 148.174 252.954 160.383 253.766 172.541C254.624 183.684 256.673 192.654 259.913 199.451C264.037 208.617 270.543 216.51 278.753 222.31C286.872 228.01 298.017 231.777 312.189 233.612C337.378 236.894 356.055 232.056 368.22 219.096C380.386 206.136 388.445 184.237 392.397 153.397C394.154 140.043 394.283 126.526 392.783 113.142Z" fill="#012D8E"/>
<path d="M323.776 220.406C320.677 220.303 317.346 220.021 313.99 219.583C302.21 218.053 293.105 215.071 286.907 210.725C280.725 206.361 275.837 200.409 272.761 193.497L272.696 193.355C270.227 188.212 268.607 180.82 267.899 171.498C267.15 160.302 267.547 149.058 269.083 137.942C273.674 102.302 283.151 87.4265 290.289 81.2294C298.622 74.0038 309.874 70.7381 324.663 71.2524C327.698 71.3552 330.913 71.6252 334.218 72.0495C343.709 73.3352 351.232 75.3923 356.556 78.298C361.157 80.6666 365.23 83.9425 368.529 87.9279C371.416 91.5274 373.736 95.5465 375.409 99.8463C377.117 104.641 378.223 109.629 378.701 114.696C380.073 126.974 379.947 139.373 378.328 151.621C374.766 179.315 367.873 198.781 357.855 209.478C350.422 217.398 339.272 221.049 323.763 220.458L323.776 220.406Z" fill="#EEEEEE"/>
<path d="M348.943 113.514L349.11 108.642L346.114 107.665C345.986 106.016 345.72 104.382 345.317 102.779L347.889 100.902L346.166 96.3247L343.028 96.5818C342.29 95.1108 341.429 93.7044 340.456 92.3776L342.076 89.6647L338.732 86.1034L335.929 87.5433C334.675 86.4651 333.332 85.4932 331.917 84.6377L332.367 81.5263L327.917 79.5077L325.885 81.8991C324.312 81.3893 322.699 81.0109 321.063 80.7677L320.304 77.7206L315.417 77.5535L314.453 80.5363C312.805 80.6681 311.17 80.9348 309.566 81.3334L307.676 78.762L303.097 80.472L303.355 83.6091C301.884 84.3474 300.477 85.2076 299.149 86.1805L296.449 84.5477L292.874 87.8776L294.314 90.6933C293.232 91.9466 292.264 93.2933 291.421 94.7175L288.308 94.2418L286.277 98.6903L288.681 100.722C288.159 102.296 287.781 103.914 287.55 105.556L284.489 106.327L284.322 111.187L287.318 112.164C287.444 113.817 287.71 115.456 288.115 117.063L285.543 118.927L287.267 123.504L290.405 123.247C291.135 124.722 291.996 126.129 292.977 127.451L291.343 130.164L294.687 133.726L297.49 132.299C298.745 133.373 300.087 134.34 301.503 135.191L301.04 138.303L305.489 140.321L307.534 137.943C309.112 138.45 310.729 138.824 312.369 139.061L313.128 142.121L318.002 142.288L318.967 139.293C320.62 139.167 322.259 138.901 323.866 138.496L325.731 141.067L330.309 139.357L330.065 136.233C331.531 135.485 332.936 134.625 334.27 133.661L336.971 135.281L340.546 131.951L339.118 129.136C340.196 127.887 341.16 126.544 341.999 125.124L345.111 125.587L347.143 121.139L344.751 119.107C345.263 117.535 345.637 115.922 345.87 114.286L348.943 113.514ZM316.022 129.29C312.213 129.151 308.53 127.887 305.439 125.657C302.348 123.428 299.987 120.332 298.654 116.763C297.321 113.193 297.076 109.308 297.949 105.599C298.822 101.889 300.775 98.5219 303.561 95.9213C306.347 93.3207 309.841 91.6035 313.602 90.9864C317.363 90.3694 321.223 90.8801 324.694 92.4542C328.165 94.0282 331.092 96.5951 333.106 99.8308C335.119 103.066 336.128 106.826 336.006 110.634C335.925 113.173 335.343 115.671 334.293 117.984C333.244 120.297 331.748 122.38 329.891 124.113C328.034 125.847 325.853 127.196 323.473 128.085C321.093 128.973 318.561 129.383 316.022 129.29Z" fill="#012D8E"/>
<path opacity="0.3" d="M369.236 202.973L369.596 199.682L367.616 198.885C367.613 197.765 367.518 196.647 367.333 195.542L369.121 194.398L368.208 191.222H366.073C365.651 190.189 365.139 189.195 364.542 188.252L365.751 186.504L363.694 183.932L361.726 184.755C360.929 183.966 360.069 183.244 359.154 182.595L359.63 180.512L356.736 178.918L355.219 180.448C354.185 180.023 353.119 179.683 352.03 179.432L351.67 177.336L348.39 176.964L347.58 178.944C346.463 178.949 345.348 179.052 344.249 179.252L343.105 177.426L339.928 178.365V180.499C338.895 180.926 337.901 181.442 336.958 182.042L335.209 180.756L332.637 182.814L333.46 184.781C332.676 185.579 331.958 186.438 331.312 187.352L329.229 186.889L327.647 189.782L329.165 191.286C328.733 192.322 328.394 193.393 328.149 194.488L326.04 194.835L325.692 198.113L327.66 198.936C327.661 200.048 327.76 201.158 327.956 202.253L326.142 203.398L327.068 206.573H329.216C329.645 207.601 330.162 208.59 330.759 209.53L329.473 211.279L331.531 213.85L333.524 213.015C334.316 213.806 335.176 214.524 336.096 215.162L335.646 217.283L338.54 218.865L340.044 217.36C341.079 217.775 342.145 218.107 343.233 218.35L343.606 220.459L346.886 220.819L347.683 218.852C348.82 218.85 349.956 218.756 351.078 218.569L352.223 220.382L355.386 219.456V217.322C356.42 216.887 357.418 216.371 358.37 215.779L360.093 217.065L362.665 214.995L361.829 213.027C362.621 212.23 363.348 211.37 364.002 210.456L366.073 210.919L367.667 208.026L366.15 206.535C366.563 205.5 366.895 204.433 367.14 203.346L369.236 202.973ZM352.686 201.688C352.141 202.683 351.314 203.495 350.308 204.02C349.303 204.545 348.164 204.761 347.036 204.639C345.908 204.517 344.841 204.063 343.971 203.334C343.101 202.606 342.466 201.636 342.148 200.548C341.829 199.459 341.841 198.3 342.181 197.218C342.521 196.136 343.175 195.179 344.059 194.468C344.944 193.757 346.019 193.325 347.15 193.225C348.28 193.126 349.414 193.364 350.409 193.909C351.74 194.642 352.726 195.871 353.152 197.329C353.579 198.786 353.411 200.353 352.686 201.688Z" fill="#012D8E"/>
<path d="M387.459 147.405L383.601 144.757C383.222 143.38 382.705 142.045 382.058 140.771L383.035 136.914L377.48 130.961L373.622 131.681C372.398 130.953 371.106 130.346 369.764 129.869L367.385 125.857L359.244 125.587L356.595 129.444C355.216 129.818 353.88 130.335 352.609 130.987L348.751 129.997L342.796 135.564L343.517 139.421C342.777 140.639 342.17 141.932 341.703 143.278L337.704 145.657L337.421 153.795L341.279 156.444C341.653 157.831 342.17 159.175 342.822 160.455L341.845 164.312L347.4 170.265L351.258 169.558C352.483 170.285 353.775 170.892 355.116 171.371L357.483 175.369L365.636 175.652L368.272 171.795C369.662 171.418 371.011 170.901 372.297 170.252L376.155 171.229L382.109 165.675L381.402 161.818C382.133 160.596 382.74 159.304 383.215 157.961L387.215 155.583L387.459 147.405ZM362.086 159.774C360.276 159.712 358.526 159.114 357.055 158.057C355.585 157 354.461 155.531 353.826 153.836C353.191 152.14 353.073 150.294 353.487 148.532C353.901 146.769 354.829 145.169 356.153 143.933C357.477 142.698 359.137 141.883 360.925 141.591C362.712 141.299 364.546 141.543 366.194 142.294C367.842 143.044 369.231 144.266 370.185 145.805C371.138 147.344 371.614 149.132 371.551 150.941C371.464 153.366 370.419 155.657 368.645 157.313C366.87 158.969 364.512 159.854 362.086 159.774Z" fill="#012D8E" fill-opacity="0.14"/>
<path d="M415.378 82.4386L416.047 80.8314C416.502 80.5753 416.932 80.2783 417.333 79.9443H418.825L420.574 77.3729L420.008 75.9972C420.225 75.539 420.397 75.0611 420.522 74.5701L421.808 73.3872L421.268 70.3658L419.648 69.6973C419.394 69.2413 419.097 68.8108 418.761 68.4116V66.9202L416.253 65.1716L414.864 65.7502C414.356 65.5714 413.83 65.4507 413.295 65.3902L412.112 64.1045L409.103 64.6445L408.421 66.2645C407.944 66.5118 407.492 66.8046 407.071 67.1387H405.592L403.843 69.7101L404.409 71.0858C404.236 71.5952 404.115 72.1207 404.049 72.6544L402.763 73.8501L403.303 76.8586L404.923 77.5272C405.168 77.9854 405.462 78.4164 405.798 78.8129V80.2914L408.37 82.04L409.746 81.4743C410.26 81.6415 410.79 81.7577 411.327 81.8214L412.511 83.1071L415.378 82.4386ZM408.948 74.1072C408.827 73.4364 408.907 72.7446 409.179 72.1193C409.451 71.494 409.902 70.9634 410.475 70.5947C411.049 70.2259 411.719 70.0355 412.401 70.0476C413.083 70.0597 413.746 70.2738 414.306 70.6627C414.866 71.0516 415.298 71.5979 415.547 72.2324C415.797 72.8669 415.852 73.5612 415.707 74.2273C415.561 74.8934 415.222 75.5014 414.731 75.9743C414.239 76.4473 413.619 76.764 412.948 76.8843C412.05 77.0419 411.126 76.8385 410.377 76.3185C409.628 75.7984 409.114 75.0037 408.948 74.1072Z" fill="#012D8E"/>
<path d="M380.155 73.9135L379.165 73.0779C381.287 70.4467 383.909 68.262 386.881 66.6499L387.485 67.7812C384.659 69.3193 382.167 71.4038 380.155 73.9135Z" fill="#012D8E"/>
<path d="M390.417 66.5987L389.915 65.4159C394.664 63.3529 399.857 62.5216 405.013 62.999L404.884 64.2846C399.943 63.8191 394.965 64.6153 390.417 66.5987Z" fill="#012D8E"/>
<path d="M387.986 75.4952L386.932 74.7753C390.03 70.5928 394.539 67.6743 399.624 66.5603L399.869 67.8459C395.116 68.8834 390.897 71.5993 387.986 75.4952Z" fill="#012D8E"/>
<path d="M302.647 199.283C302.472 199.278 302.306 199.204 302.184 199.077L299.497 196.3C298.126 196.176 296.77 195.926 295.446 195.555L291.24 197.406C291.148 197.457 291.044 197.483 290.938 197.483C290.833 197.483 290.729 197.457 290.636 197.406L283.589 192.739C283.498 192.679 283.424 192.597 283.374 192.5C283.325 192.403 283.301 192.295 283.306 192.186V187.609C282.446 186.533 281.688 185.38 281.042 184.163L277.429 182.775C277.328 182.736 277.238 182.671 277.168 182.588C277.099 182.505 277.051 182.405 277.03 182.299L275.358 174.019C275.336 173.913 275.341 173.804 275.373 173.7C275.404 173.597 275.461 173.503 275.538 173.428L278.316 170.741C278.449 169.372 278.698 168.017 279.062 166.691L277.21 162.486C277.16 162.394 277.133 162.29 277.133 162.184C277.133 162.079 277.16 161.975 277.21 161.882L281.878 154.836C281.936 154.744 282.018 154.668 282.116 154.619C282.213 154.569 282.322 154.546 282.431 154.554L287.009 154.618C288.082 153.754 289.236 152.996 290.456 152.355L291.858 148.742C291.895 148.642 291.957 148.553 292.038 148.483C292.119 148.413 292.216 148.365 292.321 148.344L300.603 146.672C300.708 146.649 300.818 146.653 300.922 146.685C301.026 146.716 301.119 146.774 301.194 146.852L303.882 149.629C305.256 149.755 306.616 150.004 307.946 150.375L312.138 148.524C312.233 148.473 312.339 148.447 312.447 148.447C312.554 148.447 312.66 148.473 312.755 148.524L319.79 153.191C319.879 153.253 319.952 153.336 320.004 153.432C320.055 153.528 320.083 153.635 320.085 153.744L320.008 158.321C320.872 159.396 321.635 160.55 322.284 161.766L325.885 163.168C325.986 163.205 326.075 163.267 326.144 163.348C326.214 163.429 326.262 163.526 326.284 163.631L327.969 171.911C327.988 172.016 327.982 172.125 327.951 172.228C327.92 172.331 327.864 172.425 327.789 172.502L324.998 175.202C324.869 176.567 324.62 177.918 324.252 179.239L326.104 183.443C326.155 183.538 326.181 183.644 326.181 183.752C326.181 183.859 326.155 183.965 326.104 184.06L321.5 191.042C321.44 191.129 321.359 191.2 321.265 191.25C321.171 191.299 321.066 191.325 320.96 191.325L316.369 191.26C315.292 192.113 314.143 192.87 312.935 193.523L311.534 197.136C311.495 197.238 311.431 197.328 311.348 197.398C311.265 197.468 311.165 197.515 311.058 197.535L302.776 199.283H302.647ZM295.407 194.14C295.467 194.129 295.528 194.129 295.587 194.14C296.976 194.545 298.402 194.807 299.844 194.925C299.998 194.943 300.143 195.01 300.255 195.117L302.827 197.817L310.415 196.287L311.778 192.765C311.841 192.622 311.95 192.505 312.086 192.43C313.371 191.766 314.582 190.969 315.7 190.052C315.818 189.952 315.97 189.902 316.125 189.91L320.587 189.975L324.856 183.546L323.056 179.458C323.005 179.316 323.005 179.162 323.056 179.02C323.454 177.63 323.717 176.205 323.841 174.765C323.854 174.609 323.922 174.463 324.033 174.353L326.734 171.782L325.204 164.196L321.693 162.834C321.542 162.779 321.418 162.668 321.346 162.525C320.678 161.242 319.881 160.032 318.967 158.912C318.875 158.795 318.825 158.65 318.825 158.501V154.026L312.395 149.758L308.319 151.558C308.173 151.61 308.014 151.61 307.868 151.558C306.475 151.156 305.045 150.893 303.599 150.774C303.445 150.755 303.3 150.688 303.187 150.581L300.615 147.881L293.028 149.424L291.678 152.998C291.624 153.145 291.519 153.268 291.382 153.345C290.092 154.007 288.877 154.805 287.755 155.724C287.7 155.774 287.635 155.812 287.564 155.836C287.493 155.861 287.418 155.871 287.344 155.865L282.881 155.801L278.599 162.229L280.399 166.318C280.441 166.404 280.462 166.499 280.462 166.594C280.462 166.69 280.441 166.784 280.399 166.871C280.018 168.228 279.769 169.618 279.654 171.023C279.642 171.179 279.573 171.326 279.461 171.435L276.76 174.006L278.303 181.592L281.801 182.955C281.957 183.02 282.085 183.138 282.161 183.289C282.824 184.563 283.617 185.765 284.528 186.876C284.623 186.992 284.673 187.138 284.669 187.288V191.762L291.099 196.03L295.188 194.23C295.255 194.188 295.329 194.157 295.407 194.14ZM301.721 189.975C298.626 189.972 295.589 189.131 292.934 187.54C290.278 185.95 288.104 183.67 286.641 180.943C285.178 178.215 284.482 175.143 284.626 172.051C284.77 168.96 285.749 165.966 287.46 163.386C289.096 160.912 291.346 158.904 293.99 157.56C296.635 156.215 299.583 155.58 302.547 155.716C305.511 155.852 308.389 156.755 310.899 158.336C313.409 159.917 315.466 162.123 316.868 164.737C318.27 167.351 318.969 170.284 318.898 173.249C318.827 176.215 317.986 179.111 316.46 181.654C314.934 184.197 312.773 186.301 310.19 187.76C307.606 189.218 304.688 189.981 301.721 189.975ZM288.54 164.094C286.809 166.705 285.891 169.77 285.903 172.903C285.914 176.035 286.855 179.094 288.605 181.692C290.355 184.29 292.836 186.312 295.735 187.5C298.634 188.688 301.821 188.991 304.892 188.369C307.963 187.747 310.78 186.229 312.988 184.006C315.196 181.783 316.695 178.956 317.296 175.881C317.896 172.807 317.572 169.624 316.363 166.734C315.154 163.844 313.116 161.377 310.505 159.645C308.773 158.486 306.829 157.682 304.785 157.278C302.741 156.875 300.637 156.88 298.595 157.294C296.553 157.707 294.613 158.521 292.887 159.688C291.161 160.855 289.684 162.352 288.54 164.094Z" fill="white"/>
<path d="M547.617 227.119L527.427 224.393L540.776 124.353L501.836 119.107L407.379 206.046L402.415 243.241L483.806 254.221L479.742 284.654L518.682 289.899L522.746 259.48L542.936 262.205L547.617 227.119ZM445.483 213.336L495.329 167.912L488.487 219.135L445.483 213.336Z" fill="#012D8E"/>
<path d="M506.851 288.948H506.684C506.517 288.917 506.37 288.821 506.273 288.681C506.177 288.541 506.14 288.369 506.17 288.202L536.262 123.71C536.297 123.545 536.393 123.399 536.532 123.303C536.671 123.208 536.841 123.169 537.008 123.196C537.175 123.227 537.323 123.323 537.419 123.463C537.515 123.602 537.553 123.774 537.523 123.941L507.494 288.421C507.465 288.569 507.384 288.703 507.267 288.799C507.15 288.895 507.003 288.948 506.851 288.948Z" fill="#C1C1C1"/>
<path d="M533.472 126.474C533.461 126.754 533.34 127.018 533.135 127.208C532.93 127.399 532.658 127.5 532.378 127.49C532.099 127.479 531.835 127.359 531.644 127.154C531.454 126.949 531.352 126.677 531.363 126.397C531.373 126.117 531.494 125.853 531.699 125.663C531.904 125.472 532.176 125.371 532.456 125.381C532.735 125.392 532.999 125.512 533.19 125.717C533.381 125.922 533.482 126.194 533.472 126.474Z" fill="#263238"/>
<path d="M529.189 148.717C529.181 148.925 529.112 149.126 528.99 149.295C528.867 149.464 528.698 149.593 528.502 149.666C528.307 149.738 528.094 149.751 527.891 149.703C527.689 149.655 527.505 149.548 527.363 149.395C527.221 149.242 527.127 149.051 527.094 148.845C527.061 148.64 527.089 148.429 527.176 148.239C527.263 148.049 527.404 147.89 527.581 147.78C527.759 147.671 527.965 147.616 528.173 147.624C528.311 147.629 528.448 147.661 528.574 147.719C528.7 147.776 528.813 147.858 528.908 147.96C529.002 148.061 529.075 148.18 529.124 148.31C529.172 148.44 529.194 148.578 529.189 148.717Z" fill="#263238"/>
<path d="M524.907 170.998C524.902 171.136 524.869 171.273 524.812 171.399C524.754 171.525 524.672 171.638 524.571 171.732C524.469 171.827 524.35 171.9 524.22 171.948C524.09 171.997 523.952 172.019 523.814 172.014C523.676 172.01 523.54 171.98 523.414 171.923C523.288 171.867 523.174 171.786 523.08 171.686C522.985 171.586 522.912 171.467 522.863 171.338C522.815 171.209 522.792 171.072 522.798 170.934C522.801 170.794 522.832 170.657 522.889 170.529C522.946 170.402 523.027 170.287 523.129 170.191C523.231 170.095 523.35 170.021 523.481 169.972C523.612 169.923 523.751 169.9 523.891 169.905C524.169 169.919 524.432 170.04 524.621 170.245C524.811 170.449 524.914 170.719 524.907 170.998Z" fill="#263238"/>
<path d="M516.47 194.14C516.442 194.398 516.319 194.637 516.126 194.81C515.932 194.983 515.682 195.078 515.422 195.078C515.163 195.078 514.912 194.983 514.719 194.81C514.525 194.637 514.403 194.398 514.374 194.14C514.358 193.993 514.373 193.844 514.418 193.703C514.463 193.562 514.538 193.431 514.637 193.321C514.735 193.211 514.856 193.122 514.992 193.062C515.127 193.001 515.274 192.97 515.422 192.97C515.57 192.97 515.717 193.001 515.852 193.062C515.988 193.122 516.109 193.211 516.208 193.321C516.307 193.431 516.381 193.562 516.426 193.703C516.472 193.844 516.487 193.993 516.47 194.14Z" fill="#C1C1C1"/>
<path d="M516.329 215.445C516.326 215.584 516.295 215.721 516.238 215.847C516.181 215.974 516.099 216.088 515.997 216.183C515.895 216.278 515.775 216.351 515.644 216.398C515.514 216.446 515.375 216.467 515.236 216.46C515.028 216.452 514.826 216.383 514.657 216.261C514.488 216.139 514.359 215.969 514.287 215.774C514.214 215.579 514.201 215.366 514.249 215.163C514.297 214.96 514.405 214.776 514.557 214.635C514.71 214.493 514.901 214.399 515.107 214.366C515.313 214.333 515.524 214.361 515.714 214.448C515.903 214.535 516.063 214.676 516.173 214.853C516.282 215.03 516.337 215.236 516.329 215.445Z" fill="#C1C1C1"/>
<path d="M512.047 237.687C512.041 237.896 511.974 238.099 511.854 238.27C511.733 238.44 511.564 238.571 511.369 238.646C511.173 238.72 510.96 238.735 510.757 238.688C510.553 238.642 510.368 238.535 510.224 238.383C510.081 238.231 509.986 238.039 509.952 237.833C509.918 237.627 509.946 237.415 510.032 237.225C510.119 237.035 510.26 236.874 510.438 236.764C510.615 236.654 510.822 236.6 511.031 236.607C511.308 236.617 511.571 236.736 511.761 236.939C511.951 237.141 512.054 237.41 512.047 237.687Z" fill="#C1C1C1"/>
<path d="M507.765 259.93C507.754 260.21 507.634 260.476 507.429 260.668C507.225 260.861 506.952 260.965 506.671 260.958C506.533 260.953 506.397 260.921 506.271 260.863C506.145 260.806 506.031 260.724 505.937 260.622C505.843 260.521 505.769 260.402 505.721 260.272C505.673 260.142 505.65 260.004 505.656 259.865C505.66 259.727 505.691 259.591 505.748 259.464C505.805 259.338 505.886 259.224 505.987 259.129C506.088 259.034 506.207 258.96 506.336 258.911C506.466 258.862 506.604 258.839 506.742 258.843C506.881 258.847 507.017 258.879 507.143 258.936C507.27 258.993 507.383 259.074 507.478 259.175C507.573 259.276 507.647 259.394 507.697 259.524C507.746 259.653 507.769 259.791 507.765 259.93Z" fill="#263238"/>
<path d="M503.469 282.185C503.461 282.394 503.392 282.595 503.27 282.764C503.148 282.933 502.978 283.062 502.783 283.134C502.587 283.207 502.375 283.22 502.172 283.172C501.969 283.123 501.785 283.016 501.643 282.864C501.501 282.711 501.408 282.52 501.374 282.314C501.341 282.108 501.37 281.897 501.456 281.708C501.543 281.518 501.684 281.358 501.861 281.249C502.039 281.139 502.245 281.085 502.453 281.092C502.592 281.096 502.729 281.127 502.856 281.184C502.983 281.241 503.097 281.323 503.192 281.425C503.286 281.526 503.36 281.646 503.407 281.777C503.455 281.907 503.476 282.046 503.469 282.185Z" fill="#263238"/>
<path d="M515.416 194.719C515.271 194.719 515.131 194.669 515.018 194.578C514.906 194.487 514.829 194.359 514.799 194.218C514.78 194.135 514.778 194.049 514.792 193.966C514.806 193.882 514.837 193.802 514.882 193.73C514.928 193.658 514.987 193.596 515.057 193.548C515.126 193.499 515.205 193.465 515.288 193.446L518.477 192.765C518.561 192.746 518.647 192.744 518.732 192.759C518.816 192.775 518.896 192.806 518.968 192.853C519.04 192.9 519.102 192.96 519.15 193.031C519.198 193.102 519.232 193.182 519.248 193.266C519.265 193.349 519.266 193.434 519.25 193.517C519.234 193.6 519.202 193.679 519.155 193.749C519.108 193.82 519.048 193.88 518.978 193.928C518.908 193.975 518.83 194.008 518.747 194.025L515.558 194.706L515.416 194.719Z" fill="#C1C1C1"/>
<path d="M526.077 182.878C524.56 186.812 523.272 190.83 522.219 194.912C521.255 199.451 521.203 209.608 521.203 209.608" fill="#C1C1C1"/>
<path d="M521.203 210.251C521.032 210.244 520.871 210.172 520.751 210.05C520.632 209.929 520.563 209.766 520.56 209.595C520.56 209.183 520.637 199.309 521.602 194.784C522.648 190.666 523.937 186.613 525.46 182.647C525.485 182.562 525.528 182.484 525.586 182.416C525.643 182.349 525.714 182.294 525.793 182.256C525.873 182.217 525.96 182.195 526.048 182.191C526.136 182.188 526.225 182.202 526.307 182.234C526.39 182.266 526.465 182.315 526.527 182.377C526.59 182.439 526.64 182.514 526.672 182.596C526.705 182.678 526.72 182.766 526.718 182.854C526.715 182.943 526.694 183.03 526.656 183.109C525.14 187.013 523.852 191.001 522.798 195.054C521.859 199.476 521.795 209.505 521.782 209.608C521.783 209.768 521.724 209.922 521.617 210.041C521.51 210.16 521.362 210.235 521.203 210.251Z" fill="#C1C1C1"/>
<path d="M286.071 321.219C287.858 292.419 284.579 240.053 338.732 246.996C396.77 254.414 380.167 322.273 380.167 322.273L286.071 321.219Z" fill="#012D8E"/>
<path d="M323.442 303.912C336.496 303.912 347.079 293.332 347.079 280.281C347.079 267.23 336.496 256.65 323.442 256.65C310.388 256.65 299.805 267.23 299.805 280.281C299.805 293.332 310.388 303.912 323.442 303.912Z" fill="white"/>
<path d="M326.554 256.689C315.353 254.786 303.406 263.027 302.21 271.384L346.59 275.473C345.021 265.946 335.427 258.206 326.554 256.689Z" fill="#383838"/>
<path d="M341.536 279.691C341.214 285.875 337.845 290.722 334.013 290.516C330.18 290.311 327.325 285.155 327.583 278.945C327.84 272.735 331.273 267.914 335.106 268.12C338.938 268.325 341.844 273.52 341.536 279.691Z" fill="#263238"/>
<path d="M323.442 305.198C318.512 305.198 313.694 303.737 309.595 300.999C305.497 298.261 302.303 294.37 300.416 289.817C298.53 285.264 298.036 280.254 298.998 275.421C299.96 270.587 302.333 266.147 305.819 262.663C309.304 259.178 313.745 256.805 318.58 255.844C323.414 254.882 328.425 255.376 332.979 257.261C337.533 259.147 341.426 262.341 344.164 266.439C346.903 270.536 348.364 275.354 348.364 280.282C348.358 286.888 345.73 293.222 341.057 297.893C336.385 302.564 330.05 305.192 323.442 305.198ZM323.442 257.949C319.021 257.949 314.699 259.26 311.023 261.716C307.347 264.172 304.482 267.662 302.791 271.746C301.1 275.83 300.658 280.324 301.521 284.659C302.385 288.994 304.515 292.975 307.642 296.1C310.769 299.224 314.753 301.351 319.089 302.212C323.426 303.073 327.92 302.628 332.004 300.935C336.088 299.242 339.578 296.376 342.032 292.7C344.486 289.023 345.795 284.702 345.792 280.282C345.786 274.358 343.428 268.68 339.238 264.493C335.047 260.306 329.366 257.952 323.442 257.949Z" fill="#012D8E"/>
<path opacity="0.3" d="M373.57 320.499H373.416C373.333 320.481 373.255 320.446 373.186 320.397C373.117 320.349 373.059 320.286 373.014 320.214C372.97 320.142 372.94 320.062 372.928 319.978C372.915 319.895 372.919 319.81 372.94 319.728C372.94 319.56 377.081 302.126 372.824 284.499C372.783 284.329 372.812 284.149 372.904 284C372.995 283.85 373.143 283.743 373.313 283.702C373.484 283.661 373.663 283.69 373.813 283.782C373.963 283.873 374.069 284.02 374.11 284.191C378.444 302.191 374.265 319.856 374.226 320.023C374.188 320.166 374.102 320.291 373.983 320.377C373.863 320.464 373.718 320.507 373.57 320.499Z" fill="white"/>
<path opacity="0.3" d="M369.982 274.83C369.859 274.828 369.738 274.793 369.634 274.727C369.53 274.661 369.445 274.568 369.391 274.457C367.793 270.925 365.744 267.615 363.295 264.61C363.189 264.478 363.138 264.31 363.155 264.141C363.172 263.973 363.255 263.817 363.385 263.71C363.451 263.655 363.526 263.614 363.608 263.589C363.69 263.563 363.776 263.555 363.861 263.563C363.946 263.572 364.028 263.597 364.103 263.637C364.178 263.678 364.245 263.733 364.298 263.8C366.807 266.893 368.912 270.292 370.561 273.917C370.598 273.993 370.619 274.075 370.623 274.159C370.627 274.243 370.615 274.328 370.586 274.407C370.557 274.486 370.513 274.558 370.455 274.62C370.398 274.682 370.329 274.731 370.252 274.766C370.168 274.805 370.076 274.827 369.982 274.83Z" fill="white"/>
<path d="M165.547 456.32H165.071C163.366 456.272 161.749 455.549 160.577 454.31C159.405 453.07 158.773 451.416 158.821 449.711C158.869 448.007 159.592 446.39 160.831 445.219C162.071 444.047 163.726 443.415 165.431 443.463H165.547C169.263 443.463 178.201 438.95 196.899 409.482C197.396 408.699 198.055 408.033 198.833 407.529C199.611 407.025 200.489 406.696 201.406 406.563C202.323 406.429 203.259 406.496 204.148 406.758C205.037 407.02 205.859 407.471 206.557 408.081C221.242 420.701 237.257 431.686 254.319 440.84C255.109 441.199 255.818 441.714 256.403 442.354C256.988 442.994 257.438 443.746 257.725 444.565C258.012 445.383 258.13 446.251 258.073 447.117C258.016 447.982 257.784 448.827 257.392 449.6C256.999 450.374 256.454 451.06 255.79 451.617C255.125 452.174 254.354 452.591 253.524 452.843C252.694 453.095 251.822 453.176 250.959 453.082C250.097 452.988 249.263 452.721 248.507 452.296C232.648 443.871 217.659 433.906 203.754 422.545C188.077 446.137 176.452 456.32 165.547 456.32Z" fill="#EEEEEE"/>
<path d="M205.336 406.924H204.783C203.772 406.777 202.861 406.236 202.248 405.419C201.636 404.602 201.373 403.576 201.516 402.565C202.429 396.137 201.298 372.184 193.183 353.542C192.823 352.718 192.762 351.794 193.011 350.93C193.26 350.066 193.803 349.316 194.546 348.81C212.164 336.815 249.69 335.375 251.284 335.323C251.791 335.306 252.296 335.389 252.771 335.568C253.245 335.746 253.68 336.016 254.05 336.362C254.42 336.708 254.719 337.124 254.928 337.585C255.138 338.047 255.254 338.545 255.271 339.052C255.288 339.558 255.205 340.063 255.027 340.538C254.848 341.012 254.578 341.447 254.232 341.817C253.886 342.187 253.47 342.485 253.008 342.695C252.547 342.904 252.048 343.02 251.542 343.037C251.194 343.037 218.388 344.323 201.542 353.58C208.718 372.146 210.351 395.275 209.155 403.645C209.016 404.558 208.555 405.391 207.854 405.993C207.153 406.595 206.259 406.925 205.336 406.924Z" fill="#EEEEEE"/>
<path d="M211.817 401.935C209.245 395.879 197.671 396.561 190.894 401.755C187.267 404.519 182.355 412.863 181.892 415.898C181.738 416.618 181.761 417.366 181.959 418.076C182.158 418.786 182.526 419.437 183.032 419.974C183.538 420.51 184.167 420.915 184.864 421.155C185.562 421.394 186.307 421.461 187.036 421.349C191.473 420.963 197.555 414.522 197.555 414.522C193.504 418.495 198.739 421.297 206.557 415.55C210.827 412.349 214.685 408.71 211.817 401.935Z" fill="#012D8E"/>
<path d="M433.009 322.916C432.95 322.929 432.888 322.929 432.829 322.916C432.747 322.894 432.67 322.856 432.604 322.803C432.537 322.751 432.481 322.685 432.44 322.611C432.4 322.536 432.374 322.454 432.366 322.37C432.357 322.285 432.366 322.2 432.392 322.119C434.102 316.153 435.967 312.515 438.423 310.548C438.038 309.165 438.11 307.695 438.629 306.356C439.228 304.794 440.286 303.449 441.664 302.499C441.289 302.095 441.023 301.602 440.891 301.067C440.758 300.532 440.763 299.972 440.905 299.439C441.371 297.829 442.334 296.406 443.657 295.376C443.18 294.843 442.919 294.151 442.924 293.435C442.924 289.578 450.01 283.767 458.047 282.661C458.218 282.637 458.391 282.682 458.529 282.785C458.666 282.889 458.757 283.043 458.78 283.214C458.804 283.384 458.76 283.557 458.656 283.695C458.552 283.832 458.398 283.923 458.228 283.947C450.589 284.988 444.184 290.516 444.21 293.435C444.207 293.87 444.373 294.289 444.673 294.605C446.403 293.432 448.349 292.615 450.398 292.203C452.447 291.79 454.558 291.789 456.607 292.201C460.555 292.959 462.163 293.795 461.983 294.991C461.623 297.241 453.225 297.716 447.592 297.048C446.583 296.956 445.601 296.672 444.699 296.212C443.486 297.075 442.584 298.306 442.127 299.722C442.016 300.097 442.017 300.495 442.129 300.87C442.241 301.244 442.459 301.578 442.757 301.831C445.149 300.545 448.505 300.082 452.942 301.059C458.768 302.345 458.986 303.052 459.128 303.476C459.173 303.626 459.177 303.786 459.138 303.937C459.1 304.089 459.02 304.228 458.909 304.338C457.687 305.623 448.75 305.019 444.262 303.913C443.72 303.79 443.196 303.595 442.705 303.335C441.377 304.142 440.355 305.368 439.799 306.819C439.428 307.758 439.325 308.782 439.503 309.776C439.732 309.639 439.968 309.515 440.211 309.403C442.873 308.118 446.088 308.349 450.061 310.046C452.633 311.165 453.919 312.168 454.048 313.183C454.054 313.444 453.988 313.701 453.859 313.927C453.73 314.154 453.542 314.341 453.315 314.469C451.347 315.755 444.48 315.575 440.905 313.672C440.083 313.225 439.398 312.563 438.925 311.756C436.828 313.685 435.131 317.118 433.588 322.505C433.541 322.621 433.462 322.722 433.359 322.795C433.256 322.868 433.135 322.91 433.009 322.916ZM439.979 310.92C440.337 311.586 440.883 312.131 441.548 312.489C444.454 314.032 450.164 314.379 452.299 313.518C452.736 313.338 452.801 313.196 452.801 313.196C452.801 313.196 452.736 312.476 449.586 311.126C445.985 309.583 443.156 309.365 440.802 310.458C440.518 310.594 440.243 310.749 439.979 310.92ZM444.274 302.473L444.596 302.563C448.784 303.528 453.094 303.853 457.379 303.528C455.859 302.964 454.292 302.534 452.698 302.242C449.928 301.492 446.999 301.572 444.274 302.473ZM445.895 295.248C446.488 295.461 447.106 295.599 447.734 295.659C454.164 296.418 459.809 295.531 460.594 294.721C460.375 294.528 459.514 293.975 456.324 293.371C452.735 292.655 449.009 293.326 445.895 295.248Z" fill="#263238"/>
<path d="M265.598 454.173C266.446 453.903 266.163 453.08 265.212 453.08H247.799C214.646 449.571 191.485 454.276 206.081 455.381C220.678 456.487 205.053 456.256 194.392 460.292C183.731 464.329 273.674 465.345 281.84 460.292C289.35 455.639 253.844 457.94 265.598 454.173Z" fill="#EEEEEE"/>
<path d="M390.263 459.303L238.772 454.276L232.483 307.423L411.379 311.422L390.263 459.303Z" fill="#012D8E"/>
<path d="M286.071 456.487C285.909 456.488 285.753 456.427 285.633 456.317C285.514 456.208 285.441 456.057 285.428 455.896L273.288 308.4C273.277 308.23 273.333 308.063 273.443 307.933C273.554 307.804 273.71 307.722 273.88 307.706C274.049 307.698 274.214 307.755 274.343 307.865C274.472 307.975 274.555 308.129 274.574 308.297L286.778 455.793C286.785 455.877 286.775 455.962 286.749 456.043C286.723 456.124 286.682 456.198 286.627 456.263C286.572 456.327 286.505 456.381 286.429 456.419C286.353 456.457 286.271 456.481 286.187 456.487H286.071Z" fill="#263238"/>
<path d="M390.263 459.303L430.977 453.106L443.799 316.552L411.379 311.422L390.263 459.303Z" fill="#012D8E"/>
<path opacity="0.2" d="M390.263 459.303L430.977 453.106L443.799 316.552L411.379 311.422L390.263 459.303Z" fill="black"/>
<path d="M251.709 425.978L247.979 338.717C247.887 336.562 248.238 334.41 249.011 332.396C249.784 330.381 250.962 328.546 252.472 327.005C253.983 325.464 255.793 324.249 257.792 323.435C259.791 322.621 261.935 322.226 264.093 322.273L377.338 324.845C379.568 324.895 381.762 325.418 383.775 326.378C385.788 327.338 387.575 328.713 389.017 330.414C390.46 332.115 391.525 334.102 392.143 336.245C392.761 338.388 392.918 340.637 392.603 342.845L380.051 430.709C379.508 434.557 377.564 438.07 374.59 440.573C371.616 443.076 367.823 444.394 363.938 444.273L266.986 441.059C263.006 440.936 259.22 439.314 256.386 436.517C253.553 433.72 251.882 429.955 251.709 425.978Z" fill="#EEEEEE"/>
<path d="M263.952 349.055L281.467 349.608L281.325 354.12L270.356 353.773L270.253 357.142L280.425 357.463L280.284 361.783L270.112 361.449L269.983 365.627L281.261 365.987L281.107 370.77L263.27 370.204L263.952 349.055Z" fill="#012D8E"/>
<path d="M284.721 370.886L285.389 349.736L296.295 350.083C297.858 350.075 299.414 350.3 300.911 350.752C301.973 351.107 302.88 351.815 303.483 352.757C303.93 353.444 304.231 354.215 304.367 355.023C304.503 355.83 304.471 356.658 304.273 357.452C304.075 358.247 303.716 358.993 303.217 359.643C302.718 360.293 302.091 360.833 301.374 361.23C300.643 361.606 299.858 361.867 299.047 362.001C299.645 362.194 300.212 362.471 300.731 362.824C301.107 363.173 301.443 363.561 301.734 363.981C302.066 364.382 302.359 364.812 302.609 365.267L305.58 371.503L298.198 371.258L294.906 364.689C294.645 364.061 294.26 363.493 293.774 363.017C293.313 362.683 292.762 362.495 292.192 362.477H291.614L291.344 371.053L284.721 370.886ZM291.691 358.517L294.443 358.607C295.027 358.572 295.608 358.49 296.179 358.363C296.609 358.297 297 358.073 297.272 357.733C297.55 357.39 297.708 356.966 297.722 356.524C297.747 356.23 297.705 355.935 297.6 355.659C297.496 355.383 297.331 355.134 297.118 354.93C296.4 354.467 295.553 354.246 294.7 354.3L291.819 354.21L291.691 358.517Z" fill="#012D8E"/>
<path d="M307.714 371.567L308.383 350.417L319.276 350.764C320.839 350.755 322.395 350.98 323.892 351.433C324.956 351.784 325.864 352.493 326.464 353.438C327.117 354.469 327.423 355.68 327.339 356.897C327.342 357.923 327.068 358.931 326.545 359.814C326.022 360.697 325.27 361.421 324.368 361.911C323.636 362.285 322.851 362.546 322.04 362.683C322.635 362.874 323.198 363.151 323.712 363.505C324.097 363.844 324.438 364.228 324.728 364.65C325.057 365.052 325.349 365.482 325.603 365.935L328.573 372.158L321.192 371.927L317.899 365.357C317.636 364.73 317.252 364.162 316.768 363.685C316.308 363.339 315.749 363.149 315.173 363.145H314.607L314.324 371.734L307.714 371.567ZM314.672 359.198L317.437 359.275C318.021 359.253 318.603 359.176 319.173 359.044C319.6 358.98 319.987 358.755 320.253 358.414C320.541 358.077 320.7 357.649 320.703 357.205C320.731 356.912 320.692 356.617 320.59 356.341C320.487 356.065 320.324 355.815 320.111 355.611C319.394 355.136 318.539 354.914 317.681 354.981L314.813 354.891L314.672 359.198Z" fill="#012D8E"/>
<path d="M329.627 361.744C329.528 360.268 329.757 358.789 330.298 357.412C330.838 356.035 331.677 354.795 332.754 353.781C333.831 352.766 335.12 352.003 336.527 351.546C337.934 351.089 339.425 350.949 340.893 351.137C342.374 351.088 343.85 351.337 345.232 351.869C346.615 352.401 347.877 353.206 348.943 354.235C349.894 355.331 350.613 356.608 351.055 357.989C351.497 359.37 351.654 360.827 351.515 362.271C351.525 364.372 351.031 366.444 350.075 368.314C349.208 369.844 347.911 371.087 346.345 371.888C344.5 372.77 342.458 373.16 340.417 373.02C338.382 373.037 336.369 372.597 334.527 371.734C332.958 370.883 331.678 369.585 330.849 368.005C329.877 366.069 329.454 363.904 329.627 361.744ZM336.16 361.975C335.967 363.596 336.335 365.234 337.202 366.617C337.607 367.069 338.1 367.436 338.65 367.694C339.2 367.952 339.796 368.097 340.404 368.119C341.011 368.142 341.616 368.043 342.184 367.826C342.752 367.61 343.271 367.282 343.709 366.861C344.662 365.418 345.114 363.701 344.995 361.975C345.168 360.426 344.79 358.865 343.928 357.565C343.538 357.116 343.056 356.756 342.514 356.51C341.973 356.264 341.385 356.137 340.79 356.138C340.19 356.095 339.587 356.188 339.028 356.411C338.469 356.634 337.968 356.98 337.562 357.424C336.588 358.736 336.093 360.343 336.16 361.975Z" fill="#012D8E"/>
<path d="M354.82 373.123L355.489 351.96L366.381 352.307C367.945 352.305 369.5 352.53 370.998 352.976C372.057 353.336 372.963 354.043 373.57 354.981C374.22 356.013 374.526 357.224 374.445 358.44C374.451 359.468 374.178 360.479 373.655 361.364C373.131 362.249 372.378 362.976 371.474 363.467C370.739 363.831 369.955 364.086 369.146 364.226C369.741 364.421 370.305 364.703 370.818 365.061C371.203 365.399 371.544 365.784 371.834 366.205C372.165 366.606 372.458 367.036 372.709 367.491L375.679 373.727L368.298 373.495L365.005 366.913C364.744 366.289 364.359 365.725 363.874 365.254C363.412 364.909 362.855 364.716 362.279 364.701H361.713L361.43 373.29L354.82 373.123ZM361.778 360.741L364.542 360.831C365.127 360.809 365.708 360.732 366.279 360.6C366.704 360.531 367.09 360.307 367.359 359.97C367.662 359.612 367.823 359.154 367.809 358.684C367.837 358.393 367.798 358.099 367.695 357.825C367.593 357.551 367.429 357.304 367.217 357.103C366.5 356.628 365.645 356.406 364.787 356.473L361.919 356.383L361.778 360.741Z" fill="#012D8E"/>
<path d="M365.224 409.058C364.983 409.063 364.743 409.016 364.522 408.92C364.3 408.825 364.101 408.683 363.938 408.505L352.93 396.458L341.047 407.309C340.718 407.611 340.283 407.77 339.837 407.75C339.39 407.731 338.97 407.535 338.668 407.207L327.66 395.16L315.777 406.011C315.448 406.313 315.013 406.471 314.567 406.452C314.121 406.432 313.7 406.237 313.398 405.908L302.377 393.861L290.508 404.712C290.334 404.869 290.131 404.989 289.91 405.064C289.689 405.139 289.454 405.168 289.222 405.15C288.775 405.123 288.356 404.925 288.051 404.597L277.043 392.563L265.173 403.401C264.842 403.703 264.404 403.862 263.956 403.843C263.508 403.824 263.086 403.628 262.781 403.298C262.631 403.135 262.515 402.944 262.439 402.736C262.364 402.527 262.331 402.306 262.341 402.085C262.352 401.863 262.407 401.646 262.502 401.446C262.598 401.246 262.732 401.067 262.897 400.92L276.014 388.924C276.346 388.622 276.783 388.463 277.232 388.482C277.68 388.501 278.102 388.697 278.406 389.027L289.414 401.074L301.284 390.223C301.621 389.927 302.058 389.77 302.506 389.785C302.953 389.809 303.374 390.008 303.676 390.338L314.684 402.385L326.567 391.534C326.729 391.383 326.92 391.266 327.128 391.189C327.336 391.113 327.557 391.078 327.778 391.088C327.999 391.097 328.217 391.151 328.417 391.245C328.618 391.339 328.798 391.472 328.946 391.637L339.954 403.684L351.837 392.833C352.166 392.531 352.602 392.372 353.048 392.392C353.494 392.411 353.914 392.607 354.216 392.935L366.51 406.281C366.73 406.526 366.873 406.831 366.923 407.156C366.973 407.482 366.927 407.815 366.79 408.115C366.654 408.415 366.433 408.668 366.155 408.845C365.877 409.022 365.554 409.114 365.224 409.109V409.058Z" fill="#012D8E"/>
<path d="M161.715 462.427L153.664 458.583L146.488 423.651L150.385 419.369L161.715 462.427Z" fill="#012D8E"/>
<path d="M161.715 462.427L172.402 456.179L163.245 427.405L150.385 419.369L161.715 462.427Z" fill="#012D8E"/>
<path opacity="0.2" d="M161.715 462.427L172.402 456.179L163.245 427.405L150.385 419.369L161.715 462.427Z" fill="black"/>
<path d="M336.932 468.779H336.044C334.339 468.733 332.722 468.011 331.549 466.773C330.375 465.535 329.742 463.882 329.788 462.177C329.834 460.472 330.556 458.855 331.794 457.682C333.032 456.509 334.686 455.876 336.392 455.922C346.294 456.243 367.256 450.162 379.241 438.539C379.965 437.829 380.846 437.301 381.813 436.996C402.119 430.902 409.668 443.206 409.976 443.733L398.917 450.277C398.956 450.359 399.003 450.437 399.058 450.509C398.943 450.342 396.062 446.652 386.906 448.915C371.872 462.62 348.801 468.779 336.932 468.779Z" fill="#EEEEEE"/>
<path d="M336.148 477.316L312.73 475.85L310.891 432.676L342.359 433.846L336.148 477.316Z" fill="#012D8E"/>
<path d="M336.147 477.315L341.626 471.864L345.021 444.954L342.359 433.846L336.147 477.315Z" fill="#012D8E"/>
<path opacity="0.2" d="M336.147 477.315L341.626 471.864L345.021 444.954L342.359 433.846L336.147 477.315Z" fill="black"/>
<path d="M471.846 460.974C471.005 460.973 470.188 460.698 469.518 460.19C456.144 450.033 438.076 431.995 431.144 414.599C431.04 414.348 430.967 414.084 430.925 413.815C427.543 393.707 424.315 351.394 424.174 349.607C424.136 349.101 424.198 348.592 424.357 348.109C424.516 347.627 424.768 347.18 425.099 346.795C425.769 346.017 426.719 345.538 427.743 345.461C428.766 345.384 429.778 345.717 430.555 346.386C431.333 347.055 431.813 348.006 431.89 349.029C431.89 349.453 435.195 392.177 438.487 412.118C445.406 429.038 464.207 446.407 474.212 454.044C474.856 454.533 475.331 455.212 475.568 455.985C475.806 456.757 475.794 457.585 475.536 458.351C475.277 459.117 474.784 459.783 474.127 460.253C473.469 460.724 472.68 460.976 471.872 460.974H471.846Z" fill="#EEEEEE"/>
<path d="M489.683 462.915C486.699 462.915 483.317 461.565 479.626 458.904C478.798 458.304 478.241 457.399 478.08 456.389C477.918 455.379 478.165 454.346 478.765 453.517C479.365 452.688 480.27 452.132 481.281 451.971C482.291 451.809 483.324 452.056 484.153 452.656C487.342 454.957 489.079 455.227 489.683 455.227C490.706 455.227 491.687 455.633 492.411 456.356C493.134 457.08 493.541 458.061 493.541 459.084C493.541 460.107 493.134 461.088 492.411 461.811C491.687 462.534 490.706 462.94 489.683 462.94V462.915Z" fill="#263238"/>
<path d="M480.707 458.789C484.835 446.536 501.759 448.953 507.597 450.779C512.584 452.226 517.368 454.3 521.833 456.95C524.984 459.007 525.035 462.466 520.83 464.433C515.686 466.85 502.62 464.703 502.62 464.703C509.359 467.647 502.62 472.417 490.776 467.737C486.931 466.22 479.254 463.289 480.707 458.789Z" fill="#012D8E"/>
<path d="M439.632 354.853C438.102 365.267 429.473 372.943 422.451 371.914C415.43 370.886 415.147 361.629 416.677 351.163C418.207 340.697 420.985 333.163 428.007 334.192C435.028 335.22 441.163 344.477 439.632 354.853Z" fill="#EEEEEE"/>
<path d="M269.906 313.324C270.488 313.324 270.96 312.852 270.96 312.27C270.96 311.688 270.488 311.216 269.906 311.216C269.323 311.216 268.851 311.688 268.851 312.27C268.851 312.852 269.323 313.324 269.906 313.324Z" fill="#263238"/>
<path d="M280.618 319.856C280.618 320.065 280.556 320.269 280.441 320.442C280.325 320.615 280.16 320.75 279.967 320.83C279.775 320.91 279.563 320.931 279.358 320.89C279.154 320.849 278.966 320.749 278.818 320.602C278.671 320.454 278.57 320.266 278.53 320.062C278.489 319.857 278.51 319.645 278.59 319.453C278.669 319.26 278.805 319.096 278.978 318.98C279.151 318.864 279.355 318.802 279.564 318.802C279.843 318.802 280.112 318.913 280.309 319.111C280.507 319.308 280.618 319.577 280.618 319.856Z" fill="#263238"/>
<path d="M281.801 444.44C281.801 444.648 281.739 444.852 281.623 445.026C281.507 445.199 281.343 445.334 281.15 445.414C280.957 445.494 280.745 445.515 280.541 445.474C280.336 445.433 280.148 445.333 280.001 445.185C279.853 445.038 279.753 444.85 279.712 444.646C279.671 444.441 279.692 444.229 279.772 444.037C279.852 443.844 279.987 443.679 280.161 443.563C280.334 443.448 280.538 443.386 280.746 443.386C281.026 443.386 281.294 443.497 281.492 443.695C281.69 443.892 281.801 444.16 281.801 444.44Z" fill="#263238"/>
<path d="M291.459 452.039C291.459 452.247 291.397 452.451 291.281 452.624C291.166 452.798 291.001 452.933 290.808 453.013C290.615 453.092 290.403 453.113 290.199 453.073C289.994 453.032 289.806 452.931 289.659 452.784C289.511 452.637 289.411 452.449 289.37 452.244C289.33 452.04 289.351 451.828 289.43 451.635C289.51 451.443 289.645 451.278 289.819 451.162C289.992 451.046 290.196 450.984 290.405 450.984C290.684 450.984 290.953 451.095 291.15 451.293C291.348 451.491 291.459 451.759 291.459 452.039Z" fill="#263238"/>
<path d="M106.108 464.677C104.257 464.591 102.448 464.09 100.817 463.211C99.1852 462.332 97.7721 461.097 96.6817 459.599C96.6282 459.53 96.5894 459.451 96.5675 459.366C96.5456 459.282 96.5411 459.194 96.5543 459.108C96.5675 459.021 96.5981 458.939 96.6443 458.865C96.6905 458.791 96.7512 458.727 96.8229 458.677C96.8945 458.627 96.9755 458.593 97.061 458.575C97.1465 458.558 97.2347 458.558 97.3201 458.575C97.4055 458.593 97.4865 458.628 97.558 458.678C97.6296 458.728 97.6902 458.792 97.7362 458.866C100.141 462.337 105.452 464.176 107.767 463.083C107.999 462.985 108.205 462.835 108.371 462.646C107.202 462.131 106.177 461.337 105.387 460.332C104.598 459.327 104.068 458.144 103.845 456.886C103.549 455.253 103.317 453.029 104.655 452.746C106.507 452.335 108.924 456.796 109.799 460.177C109.957 460.737 110.014 461.321 109.966 461.9C110.708 462.121 111.488 462.183 112.255 462.08C112.601 462.054 112.937 461.955 113.243 461.791C113.548 461.628 113.816 461.402 114.03 461.129C113.183 460.49 112.481 459.68 111.97 458.752C111.458 457.824 111.147 456.798 111.059 455.742C110.57 452.219 110.943 451.615 111.329 451.306C111.454 451.21 111.603 451.151 111.76 451.135C111.917 451.119 112.075 451.147 112.217 451.216C113.593 451.795 115.252 456.783 115.573 459.612C115.612 459.906 115.612 460.204 115.573 460.499C116.127 460.712 116.715 460.825 117.309 460.833C118.4 460.876 119.478 460.594 120.408 460.023C120.228 459.907 120.061 459.779 119.894 459.65C118.608 458.506 118.016 456.68 118.248 454.083C118.428 452.065 118.878 450.959 119.688 450.612C119.95 450.507 120.236 450.48 120.512 450.535C120.788 450.59 121.043 450.724 121.244 450.92C122.112 451.879 122.761 453.015 123.145 454.249C123.53 455.484 123.64 456.787 123.469 458.069C123.357 458.603 123.134 459.106 122.813 459.547C125.179 459.959 128.497 459.29 131.365 458.583C131.45 458.563 131.537 458.559 131.623 458.573C131.709 458.587 131.791 458.617 131.865 458.662C131.939 458.708 132.003 458.767 132.054 458.837C132.105 458.908 132.142 458.987 132.162 459.072C132.183 459.156 132.186 459.244 132.173 459.329C132.159 459.415 132.129 459.497 132.083 459.571C132.038 459.645 131.978 459.71 131.908 459.761C131.838 459.812 131.758 459.849 131.674 459.869C128.189 460.73 124.434 461.437 121.784 460.666C120.491 461.649 118.908 462.173 117.283 462.157C116.563 462.148 115.849 462.013 115.174 461.759C114.875 462.221 114.474 462.609 114.001 462.892C113.528 463.175 112.997 463.346 112.448 463.392C111.481 463.516 110.499 463.433 109.567 463.147C109.267 463.653 108.818 464.052 108.281 464.292C107.592 464.57 106.851 464.701 106.108 464.677ZM105.002 454.032C104.824 454.906 104.86 455.81 105.105 456.667C105.286 457.696 105.713 458.665 106.349 459.493C106.985 460.321 107.811 460.984 108.757 461.425C108.739 461.12 108.687 460.818 108.603 460.525C107.6 456.847 105.671 454.315 105.002 454.032ZM112.165 452.913C112.174 453.8 112.247 454.685 112.384 455.562C112.526 457.129 113.218 458.596 114.338 459.702C114.022 457.328 113.286 455.029 112.165 452.913ZM120.254 451.795C120.254 451.795 119.765 452.039 119.585 454.186C119.405 456.333 119.778 457.812 120.781 458.673C121.019 458.865 121.278 459.029 121.553 459.162C121.891 458.8 122.13 458.357 122.247 457.876C122.476 455.852 121.93 453.817 120.717 452.18C120.447 451.846 120.293 451.795 120.254 451.795Z" fill="#263238"/>
<path d="M294.327 474.396L297.812 468.354L294.327 462.312H290.598L292.707 468.354L290.598 474.396H294.327Z" fill="#263238"/>
<path d="M290.842 471.504C290.412 471.531 289.981 471.47 289.576 471.325C289.17 471.179 288.799 470.952 288.485 470.658C288.171 470.363 287.92 470.007 287.749 469.612C287.578 469.217 287.49 468.791 287.49 468.36C287.49 467.93 287.578 467.504 287.749 467.109C287.92 466.714 288.171 466.358 288.485 466.063C288.799 465.769 289.17 465.542 289.576 465.396C289.981 465.251 290.412 465.19 290.842 465.217L284.926 464.034L283.344 468.817L285.993 472.854L290.842 471.504Z" fill="#263238"/>
<path d="M291.356 462.312H284.373L280.888 468.354L284.373 474.396H291.356L294.841 468.354L291.356 462.312ZM287.871 471.504C287.247 471.506 286.637 471.324 286.117 470.979C285.597 470.635 285.192 470.144 284.951 469.568C284.711 468.993 284.646 468.359 284.767 467.748C284.887 467.136 285.186 466.573 285.626 466.131C286.066 465.69 286.627 465.388 287.239 465.266C287.85 465.143 288.485 465.205 289.061 465.443C289.638 465.681 290.13 466.085 290.477 466.603C290.824 467.121 291.009 467.731 291.009 468.354C291.009 469.187 290.679 469.986 290.091 470.577C289.503 471.167 288.705 471.5 287.871 471.504Z" fill="#012D8E"/>
<path d="M537.407 461.899L534.822 457.412L537.407 452.926H540.172L538.615 457.412L540.172 461.899H537.407Z" fill="#012D8E"/>
<path d="M539.991 459.752C540.312 459.776 540.635 459.733 540.939 459.627C541.243 459.52 541.521 459.352 541.757 459.133C541.993 458.914 542.181 458.649 542.31 458.354C542.439 458.059 542.505 457.741 542.505 457.419C542.505 457.097 542.439 456.778 542.31 456.483C542.181 456.188 541.993 455.923 541.757 455.704C541.521 455.485 541.243 455.317 540.939 455.211C540.635 455.104 540.312 455.062 539.991 455.085L544.389 454.211L545.56 457.759L543.605 460.755L539.991 459.752Z" fill="#012D8E"/>
<path d="M539.619 452.926H544.763L547.335 457.412L544.763 461.899H539.619L537.047 457.412L539.619 452.926ZM542.191 459.752C542.654 459.755 543.108 459.62 543.495 459.364C543.881 459.109 544.183 458.744 544.362 458.317C544.542 457.89 544.59 457.419 544.501 456.964C544.412 456.509 544.19 456.091 543.863 455.763C543.536 455.434 543.119 455.21 542.665 455.119C542.211 455.027 541.739 455.073 541.311 455.25C540.883 455.426 540.516 455.726 540.259 456.111C540.001 456.496 539.863 456.949 539.863 457.412C539.862 457.72 539.921 458.025 540.038 458.31C540.155 458.595 540.327 458.853 540.545 459.071C540.763 459.288 541.021 459.461 541.306 459.578C541.591 459.695 541.896 459.754 542.204 459.752H542.191Z" fill="#263238"/>
<path d="M441.098 467.864H446.911C447.639 467.861 448.335 467.57 448.849 467.054C449.362 466.539 449.65 465.841 449.65 465.113C449.65 464.386 449.362 463.688 448.849 463.172C448.335 462.657 447.639 462.365 446.911 462.362H441.098C440.368 462.362 439.668 462.652 439.152 463.168C438.636 463.684 438.346 464.384 438.346 465.113C438.346 465.843 438.636 466.543 439.152 467.059C439.668 467.575 440.368 467.864 441.098 467.864Z" fill="#263238"/>
<path d="M431.749 462.67C432.288 461.69 433.103 460.888 434.093 460.365C435.082 459.841 436.204 459.619 437.318 459.725C438.433 459.831 439.492 460.261 440.365 460.961C441.238 461.662 441.887 462.603 442.232 463.668C442.576 464.732 442.602 465.875 442.305 466.954C442.008 468.033 441.401 469.002 440.56 469.741C439.719 470.479 438.68 470.956 437.572 471.111C436.463 471.267 435.333 471.094 434.321 470.615C432.93 469.899 431.879 468.661 431.397 467.173C430.916 465.684 431.042 464.066 431.749 462.67Z" fill="#012D8E"/>
<path d="M433.318 470.616L434.911 471.367L440.449 459.622L438.856 458.871L433.318 470.616Z" fill="#263238"/>
</svg>
