<svg width="23" height="16" viewBox="0 0 23 16" fill="none" xmlns="http://www.w3.org/2000/svg">
<path d="M2.24519 10.1469L1.70156 10.6636L2.24519 10.1469ZM2.24519 5.8531L1.70156 5.33641L2.24519 5.8531ZM20.5058 10.1469L21.0494 10.6636L20.5058 10.1469ZM20.5058 5.8531L21.0494 5.33641L20.5058 5.8531ZM19.9622 9.63021C18.0222 11.6713 14.8555 14.25 11.3755 14.25V15.75C15.5265 15.75 19.0778 12.738 21.0494 10.6636L19.9622 9.63021ZM11.3755 14.25C7.89547 14.25 4.72877 11.6713 2.78882 9.63021L1.70156 10.6636C3.67319 12.738 7.22447 15.75 11.3755 15.75V14.25ZM2.78882 6.36979C4.72877 4.32869 7.89547 1.75 11.3755 1.75V0.25C7.22447 0.25 3.67319 3.26198 1.70156 5.33641L2.78882 6.36979ZM11.3755 1.75C14.8555 1.75 18.0222 4.32869 19.9622 6.36979L21.0494 5.33641C19.0778 3.26198 15.5265 0.25 11.3755 0.25V1.75ZM2.78882 9.63021C1.90438 8.69965 1.90438 7.30035 2.78882 6.36979L1.70156 5.33641C0.266796 6.84599 0.266797 9.15401 1.70156 10.6636L2.78882 9.63021ZM21.0494 10.6636C22.4842 9.15401 22.4842 6.84599 21.0494 5.33641L19.9622 6.36979C20.8466 7.30035 20.8466 8.69965 19.9622 9.63021L21.0494 10.6636ZM13.6255 8C13.6255 9.24264 12.6181 10.25 11.3755 10.25V11.75C13.4466 11.75 15.1255 10.0711 15.1255 8H13.6255ZM11.3755 10.25C10.1328 10.25 9.12549 9.24264 9.12549 8H7.62549C7.62549 10.0711 9.30442 11.75 11.3755 11.75V10.25ZM9.12549 8C9.12549 6.75736 10.1328 5.75 11.3755 5.75V4.25C9.30442 4.25 7.62549 5.92893 7.62549 8H9.12549ZM11.3755 5.75C12.6181 5.75 13.6255 6.75736 13.6255 8H15.1255C15.1255 5.92893 13.4466 4.25 11.3755 4.25V5.75Z" fill="white"/>
</svg>
