<svg width="170" height="19" viewBox="0 0 170 19" fill="none" xmlns="http://www.w3.org/2000/svg">
<path d="M4.11427 1.454C5.48227 1.454 6.66427 1.712 7.66027 2.228C8.66827 2.732 9.43627 3.458 9.96427 4.406C10.5043 5.354 10.7743 6.47 10.7743 7.754C10.7743 9.038 10.5043 10.154 9.96427 11.102C9.43627 12.038 8.66827 12.758 7.66027 13.262C6.66427 13.754 5.48227 14 4.11427 14H0.208266V1.454H4.11427ZM4.11427 12.65C5.73427 12.65 6.97027 12.224 7.82227 11.372C8.67427 10.508 9.10027 9.302 9.10027 7.754C9.10027 6.194 8.66827 4.976 7.80427 4.1C6.95227 3.224 5.72227 2.786 4.11427 2.786H1.84627V12.65H4.11427ZM21.9348 8.69C21.9348 9.002 21.9168 9.332 21.8808 9.68H13.9968C14.0568 10.652 14.3868 11.414 14.9868 11.966C15.5988 12.506 16.3368 12.776 17.2008 12.776C17.9088 12.776 18.4968 12.614 18.9648 12.29C19.4448 11.954 19.7808 11.51 19.9728 10.958H21.7368C21.4728 11.906 20.9448 12.68 20.1528 13.28C19.3608 13.868 18.3768 14.162 17.2008 14.162C16.2648 14.162 15.4248 13.952 14.6808 13.532C13.9488 13.112 13.3728 12.518 12.9528 11.75C12.5328 10.97 12.3228 10.07 12.3228 9.05C12.3228 8.03 12.5268 7.136 12.9348 6.368C13.3428 5.6 13.9128 5.012 14.6448 4.604C15.3888 4.184 16.2408 3.974 17.2008 3.974C18.1368 3.974 18.9648 4.178 19.6848 4.586C20.4048 4.994 20.9568 5.558 21.3408 6.278C21.7368 6.986 21.9348 7.79 21.9348 8.69ZM20.2428 8.348C20.2428 7.724 20.1048 7.19 19.8288 6.746C19.5528 6.29 19.1748 5.948 18.6948 5.72C18.2268 5.48 17.7048 5.36 17.1288 5.36C16.3008 5.36 15.5928 5.624 15.0048 6.152C14.4288 6.68 14.0988 7.412 14.0148 8.348H20.2428ZM27.7689 12.488L30.8289 4.136H32.5749L28.7049 14H26.7969L22.9269 4.136H24.6909L27.7689 12.488ZM43.1868 8.69C43.1868 9.002 43.1688 9.332 43.1328 9.68H35.2488C35.3088 10.652 35.6388 11.414 36.2388 11.966C36.8508 12.506 37.5888 12.776 38.4528 12.776C39.1608 12.776 39.7488 12.614 40.2168 12.29C40.6968 11.954 41.0328 11.51 41.2248 10.958H42.9888C42.7248 11.906 42.1968 12.68 41.4048 13.28C40.6128 13.868 39.6288 14.162 38.4528 14.162C37.5168 14.162 36.6768 13.952 35.9328 13.532C35.2008 13.112 34.6248 12.518 34.2048 11.75C33.7848 10.97 33.5748 10.07 33.5748 9.05C33.5748 8.03 33.7788 7.136 34.1868 6.368C34.5948 5.6 35.1648 5.012 35.8968 4.604C36.6408 4.184 37.4928 3.974 38.4528 3.974C39.3888 3.974 40.2168 4.178 40.9368 4.586C41.6568 4.994 42.2088 5.558 42.5928 6.278C42.9888 6.986 43.1868 7.79 43.1868 8.69ZM41.4948 8.348C41.4948 7.724 41.3568 7.19 41.0808 6.746C40.8048 6.29 40.4268 5.948 39.9468 5.72C39.4788 5.48 38.9568 5.36 38.3808 5.36C37.5528 5.36 36.8448 5.624 36.2568 6.152C35.6808 6.68 35.3508 7.412 35.2668 8.348H41.4948ZM46.9869 0.68V14H45.3489V0.68H46.9869ZM54.0806 14.162C53.1566 14.162 52.3166 13.952 51.5606 13.532C50.8166 13.112 50.2286 12.518 49.7966 11.75C49.3766 10.97 49.1666 10.07 49.1666 9.05C49.1666 8.042 49.3826 7.154 49.8146 6.386C50.2586 5.606 50.8586 5.012 51.6146 4.604C52.3706 4.184 53.2166 3.974 54.1526 3.974C55.0886 3.974 55.9346 4.184 56.6906 4.604C57.4466 5.012 58.0406 5.6 58.4726 6.368C58.9166 7.136 59.1386 8.03 59.1386 9.05C59.1386 10.07 58.9106 10.97 58.4546 11.75C58.0106 12.518 57.4046 13.112 56.6366 13.532C55.8686 13.952 55.0166 14.162 54.0806 14.162ZM54.0806 12.722C54.6686 12.722 55.2206 12.584 55.7366 12.308C56.2526 12.032 56.6666 11.618 56.9786 11.066C57.3026 10.514 57.4646 9.842 57.4646 9.05C57.4646 8.258 57.3086 7.586 56.9966 7.034C56.6846 6.482 56.2766 6.074 55.7726 5.81C55.2686 5.534 54.7226 5.396 54.1346 5.396C53.5346 5.396 52.9826 5.534 52.4786 5.81C51.9866 6.074 51.5906 6.482 51.2906 7.034C50.9906 7.586 50.8406 8.258 50.8406 9.05C50.8406 9.854 50.9846 10.532 51.2726 11.084C51.5726 11.636 51.9686 12.05 52.4606 12.326C52.9526 12.59 53.4926 12.722 54.0806 12.722ZM62.9303 5.954C63.2543 5.39 63.7343 4.922 64.3703 4.55C65.0183 4.166 65.7683 3.974 66.6203 3.974C67.4963 3.974 68.2883 4.184 68.9962 4.604C69.7162 5.024 70.2803 5.618 70.6883 6.386C71.0963 7.142 71.3003 8.024 71.3003 9.032C71.3003 10.028 71.0963 10.916 70.6883 11.696C70.2803 12.476 69.7162 13.082 68.9962 13.514C68.2883 13.946 67.4963 14.162 66.6203 14.162C65.7803 14.162 65.0363 13.976 64.3883 13.604C63.7523 13.22 63.2663 12.746 62.9303 12.182V18.68H61.2923V4.136H62.9303V5.954ZM69.6263 9.032C69.6263 8.288 69.4763 7.64 69.1763 7.088C68.8763 6.536 68.4683 6.116 67.9523 5.828C67.4483 5.54 66.8903 5.396 66.2783 5.396C65.6783 5.396 65.1203 5.546 64.6043 5.846C64.1003 6.134 63.6923 6.56 63.3803 7.124C63.0803 7.676 62.9303 8.318 62.9303 9.05C62.9303 9.794 63.0803 10.448 63.3803 11.012C63.6923 11.564 64.1003 11.99 64.6043 12.29C65.1203 12.578 65.6783 12.722 66.2783 12.722C66.8903 12.722 67.4483 12.578 67.9523 12.29C68.4683 11.99 68.8763 11.564 69.1763 11.012C69.4763 10.448 69.6263 9.788 69.6263 9.032ZM82.4563 8.69C82.4563 9.002 82.4383 9.332 82.4023 9.68H74.5183C74.5783 10.652 74.9083 11.414 75.5083 11.966C76.1203 12.506 76.8583 12.776 77.7223 12.776C78.4303 12.776 79.0183 12.614 79.4863 12.29C79.9663 11.954 80.3023 11.51 80.4943 10.958H82.2583C81.9943 11.906 81.4663 12.68 80.6743 13.28C79.8823 13.868 78.8983 14.162 77.7223 14.162C76.7863 14.162 75.9463 13.952 75.2023 13.532C74.4703 13.112 73.8943 12.518 73.4743 11.75C73.0543 10.97 72.8443 10.07 72.8443 9.05C72.8443 8.03 73.0483 7.136 73.4563 6.368C73.8643 5.6 74.4343 5.012 75.1663 4.604C75.9103 4.184 76.7623 3.974 77.7223 3.974C78.6583 3.974 79.4863 4.178 80.2063 4.586C80.9263 4.994 81.4783 5.558 81.8623 6.278C82.2583 6.986 82.4563 7.79 82.4563 8.69ZM80.7643 8.348C80.7643 7.724 80.6263 7.19 80.3503 6.746C80.0743 6.29 79.6963 5.948 79.2163 5.72C78.7483 5.48 78.2263 5.36 77.6503 5.36C76.8223 5.36 76.1143 5.624 75.5263 6.152C74.9503 6.68 74.6203 7.412 74.5363 8.348H80.7643ZM86.2564 5.738C86.5444 5.174 86.9524 4.736 87.4804 4.424C88.0204 4.112 88.6744 3.956 89.4424 3.956V5.648H89.0104C87.1744 5.648 86.2564 6.644 86.2564 8.636V14H84.6184V4.136H86.2564V5.738ZM97.7701 5.972C98.1061 5.384 98.5981 4.904 99.2461 4.532C99.8941 4.16 100.632 3.974 101.46 3.974C102.348 3.974 103.146 4.184 103.854 4.604C104.562 5.024 105.12 5.618 105.528 6.386C105.936 7.142 106.14 8.024 106.14 9.032C106.14 10.028 105.936 10.916 105.528 11.696C105.12 12.476 104.556 13.082 103.836 13.514C103.128 13.946 102.336 14.162 101.46 14.162C100.608 14.162 99.8581 13.976 99.2101 13.604C98.5741 13.232 98.0941 12.758 97.7701 12.182V14H96.1321V0.68H97.7701V5.972ZM104.466 9.032C104.466 8.288 104.316 7.64 104.016 7.088C103.716 6.536 103.308 6.116 102.792 5.828C102.288 5.54 101.73 5.396 101.118 5.396C100.518 5.396 99.9601 5.546 99.4441 5.846C98.9401 6.134 98.5321 6.56 98.2201 7.124C97.9201 7.676 97.7701 8.318 97.7701 9.05C97.7701 9.794 97.9201 10.448 98.2201 11.012C98.5321 11.564 98.9401 11.99 99.4441 12.29C99.9601 12.578 100.518 12.722 101.118 12.722C101.73 12.722 102.288 12.578 102.792 12.29C103.308 11.99 103.716 11.564 104.016 11.012C104.316 10.448 104.466 9.788 104.466 9.032ZM116.792 4.136L110.852 18.644H109.16L111.104 13.892L107.126 4.136H108.944L112.04 12.128L115.1 4.136H116.792Z" fill="white" fill-opacity="0.2"/>
<path d="M133.102 14H131.464L124.876 4.01V14H123.238V1.436H124.876L131.464 11.408V1.436H133.102V14ZM135.282 9.032C135.282 8.024 135.486 7.142 135.894 6.386C136.302 5.618 136.86 5.024 137.568 4.604C138.288 4.184 139.086 3.974 139.962 3.974C140.826 3.974 141.576 4.16 142.212 4.532C142.848 4.904 143.322 5.372 143.634 5.936V4.136H145.29V14H143.634V12.164C143.31 12.74 142.824 13.22 142.176 13.604C141.54 13.976 140.796 14.162 139.944 14.162C139.068 14.162 138.276 13.946 137.568 13.514C136.86 13.082 136.302 12.476 135.894 11.696C135.486 10.916 135.282 10.028 135.282 9.032ZM143.634 9.05C143.634 8.306 143.484 7.658 143.184 7.106C142.884 6.554 142.476 6.134 141.96 5.846C141.456 5.546 140.898 5.396 140.286 5.396C139.674 5.396 139.116 5.54 138.612 5.828C138.108 6.116 137.706 6.536 137.406 7.088C137.106 7.64 136.956 8.288 136.956 9.032C136.956 9.788 137.106 10.448 137.406 11.012C137.706 11.564 138.108 11.99 138.612 12.29C139.116 12.578 139.674 12.722 140.286 12.722C140.898 12.722 141.456 12.578 141.96 12.29C142.476 11.99 142.884 11.564 143.184 11.012C143.484 10.448 143.634 9.794 143.634 9.05ZM149.696 5.954C150.02 5.39 150.5 4.922 151.136 4.55C151.784 4.166 152.534 3.974 153.386 3.974C154.262 3.974 155.054 4.184 155.762 4.604C156.482 5.024 157.046 5.618 157.454 6.386C157.862 7.142 158.066 8.024 158.066 9.032C158.066 10.028 157.862 10.916 157.454 11.696C157.046 12.476 156.482 13.082 155.762 13.514C155.054 13.946 154.262 14.162 153.386 14.162C152.546 14.162 151.802 13.976 151.154 13.604C150.518 13.22 150.032 12.746 149.696 12.182V18.68H148.058V4.136H149.696V5.954ZM156.392 9.032C156.392 8.288 156.242 7.64 155.942 7.088C155.642 6.536 155.234 6.116 154.718 5.828C154.214 5.54 153.656 5.396 153.044 5.396C152.444 5.396 151.886 5.546 151.37 5.846C150.866 6.134 150.458 6.56 150.146 7.124C149.846 7.676 149.696 8.318 149.696 9.05C149.696 9.794 149.846 10.448 150.146 11.012C150.458 11.564 150.866 11.99 151.37 12.29C151.886 12.578 152.444 12.722 153.044 12.722C153.656 12.722 154.214 12.578 154.718 12.29C155.234 11.99 155.642 11.564 155.942 11.012C156.242 10.448 156.392 9.788 156.392 9.032ZM159.61 9.032C159.61 8.024 159.814 7.142 160.222 6.386C160.63 5.618 161.188 5.024 161.896 4.604C162.616 4.184 163.414 3.974 164.29 3.974C165.154 3.974 165.904 4.16 166.54 4.532C167.176 4.904 167.65 5.372 167.962 5.936V4.136H169.618V14H167.962V12.164C167.638 12.74 167.152 13.22 166.504 13.604C165.868 13.976 165.124 14.162 164.272 14.162C163.396 14.162 162.604 13.946 161.896 13.514C161.188 13.082 160.63 12.476 160.222 11.696C159.814 10.916 159.61 10.028 159.61 9.032ZM167.962 9.05C167.962 8.306 167.812 7.658 167.512 7.106C167.212 6.554 166.804 6.134 166.288 5.846C165.784 5.546 165.226 5.396 164.614 5.396C164.002 5.396 163.444 5.54 162.94 5.828C162.436 6.116 162.034 6.536 161.734 7.088C161.434 7.64 161.284 8.288 161.284 9.032C161.284 9.788 161.434 10.448 161.734 11.012C162.034 11.564 162.436 11.99 162.94 12.29C163.444 12.578 164.002 12.722 164.614 12.722C165.226 12.722 165.784 12.578 166.288 12.29C166.804 11.99 167.212 11.564 167.512 11.012C167.812 10.448 167.962 9.794 167.962 9.05Z" fill="#6F6F6F"/>
</svg>
