<svg width="16" height="16" viewBox="0 0 16 16" fill="none" xmlns="http://www.w3.org/2000/svg">
<path d="M8 1.85542C9.98795 1.85542 10.259 1.85542 11.0723 1.85542C11.7952 1.85542 12.1566 2.03614 12.4277 2.12651C12.7892 2.30723 13.0602 2.39759 13.3313 2.66868C13.6024 2.93976 13.7831 3.21084 13.8735 3.57229C13.9639 3.84337 14.0542 4.20482 14.1446 4.92771C14.1446 5.74096 14.1446 5.92169 14.1446 8C14.1446 10.0783 14.1446 10.259 14.1446 11.0723C14.1446 11.7952 13.9639 12.1566 13.8735 12.4277C13.6928 12.7892 13.6024 13.0602 13.3313 13.3313C13.0602 13.6024 12.7892 13.7831 12.4277 13.8735C12.1566 13.9639 11.7952 14.0542 11.0723 14.1446C10.259 14.1446 10.0783 14.1446 8 14.1446C5.92169 14.1446 5.74096 14.1446 4.92771 14.1446C4.20482 14.1446 3.84337 13.9639 3.57229 13.8735C3.21084 13.6928 2.93976 13.6024 2.66868 13.3313C2.39759 13.0602 2.21687 12.7892 2.12651 12.4277C2.03614 12.1566 1.94578 11.7952 1.85542 11.0723C1.85542 10.259 1.85542 10.0783 1.85542 8C1.85542 5.92169 1.85542 5.74096 1.85542 4.92771C1.85542 4.20482 2.03614 3.84337 2.12651 3.57229C2.30723 3.21084 2.39759 2.93976 2.66868 2.66868C2.93976 2.39759 3.21084 2.21687 3.57229 2.12651C3.84337 2.03614 4.20482 1.94578 4.92771 1.85542C5.74096 1.85542 6.01205 1.85542 8 1.85542ZM8 0.5C5.92169 0.5 5.74096 0.5 4.92771 0.5C4.11446 0.5 3.57229 0.680723 3.12048 0.861446C2.66868 1.04217 2.21687 1.31325 1.76506 1.76506C1.31325 2.21687 1.13253 2.57831 0.861446 3.12048C0.680723 3.57229 0.590361 4.11446 0.5 4.92771C0.5 5.74096 0.5 6.01205 0.5 8C0.5 10.0783 0.5 10.259 0.5 11.0723C0.5 11.8855 0.680723 12.4277 0.861446 12.8795C1.04217 13.3313 1.31325 13.7831 1.76506 14.2349C2.21687 14.6867 2.57831 14.8675 3.12048 15.1386C3.57229 15.3193 4.11446 15.4096 4.92771 15.5C5.74096 15.5 6.01205 15.5 8 15.5C9.98795 15.5 10.259 15.5 11.0723 15.5C11.8855 15.5 12.4277 15.3193 12.8795 15.1386C13.3313 14.9578 13.7831 14.6867 14.2349 14.2349C14.6867 13.7831 14.8675 13.4217 15.1386 12.8795C15.3193 12.4277 15.4096 11.8855 15.5 11.0723C15.5 10.259 15.5 9.98795 15.5 8C15.5 6.01205 15.5 5.74096 15.5 4.92771C15.5 4.11446 15.3193 3.57229 15.1386 3.12048C14.9578 2.66868 14.6867 2.21687 14.2349 1.76506C13.7831 1.31325 13.4217 1.13253 12.8795 0.861446C12.4277 0.680723 11.8855 0.590361 11.0723 0.5C10.259 0.5 10.0783 0.5 8 0.5Z" fill="white"/>
<path d="M8 4.11446C5.83133 4.11446 4.11446 5.83133 4.11446 8C4.11446 10.1687 5.83133 11.8855 8 11.8855C10.1687 11.8855 11.8855 10.1687 11.8855 8C11.8855 5.83133 10.1687 4.11446 8 4.11446ZM8 10.5301C6.64458 10.5301 5.46988 9.44578 5.46988 8C5.46988 6.64458 6.55422 5.46988 8 5.46988C9.35542 5.46988 10.5301 6.55422 10.5301 8C10.5301 9.35542 9.35542 10.5301 8 10.5301Z" fill="white"/>
<path d="M11.9759 4.92771C12.475 4.92771 12.8795 4.52315 12.8795 4.0241C12.8795 3.52504 12.475 3.12048 11.9759 3.12048C11.4769 3.12048 11.0723 3.52504 11.0723 4.0241C11.0723 4.52315 11.4769 4.92771 11.9759 4.92771Z" fill="white"/>
</svg>
