<svg width="16" height="19" viewBox="0 0 16 19" fill="none" xmlns="http://www.w3.org/2000/svg">
<path d="M14.7215 8.28956C14.7215 13.6684 9.21233 16.9821 8.06744 17.6133C8.00402 17.6483 7.93276 17.6667 7.86033 17.6667C7.7879 17.6667 7.71665 17.6483 7.65322 17.6133C6.50748 16.9821 1 13.6684 1 8.28956C1 4.00158 3.57279 1 7.86076 1C12.1487 1 14.7215 4.00158 14.7215 8.28956Z" stroke="white" stroke-width="1.4" stroke-linecap="round" stroke-linejoin="round"/>
<path d="M4.4303 7.8608C4.4303 8.77059 4.79171 9.64312 5.43503 10.2864C6.07835 10.9298 6.95088 11.2912 7.86068 11.2912C8.77047 11.2912 9.643 10.9298 10.2863 10.2864C10.9296 9.64312 11.2911 8.77059 11.2911 7.8608C11.2911 6.95101 10.9296 6.07848 10.2863 5.43515C9.643 4.79183 8.77047 4.43042 7.86068 4.43042C6.95088 4.43042 6.07835 4.79183 5.43503 5.43515C4.79171 6.07848 4.4303 6.95101 4.4303 7.8608Z" stroke="white" stroke-width="1.4" stroke-linecap="round" stroke-linejoin="round"/>
</svg>
