<svg width="20" height="16" viewBox="0 0 20 16" fill="none" xmlns="http://www.w3.org/2000/svg">
<path d="M0 1.5C0 1.91421 0.335786 2.25 0.75 2.25H10H19.25C19.6642 2.25 20 1.91421 20 1.5C20 1.08579 19.6642 0.75 19.25 0.75H10H0.75C0.335786 0.75 0 1.08579 0 1.5Z" fill="#4D535B"/>
<path d="M0 8C0 8.41421 0.335786 8.75 0.75 8.75H10H19.25C19.6642 8.75 20 8.41421 20 8C20 7.58579 19.6642 7.25 19.25 7.25H10H0.75C0.335786 7.25 0 7.58579 0 8Z" fill="#4D535B"/>
<path d="M0 14.5C0 14.9142 0.335786 15.25 0.75 15.25H10H19.25C19.6642 15.25 20 14.9142 20 14.5C20 14.0858 19.6642 13.75 19.25 13.75H10H0.75C0.335786 13.75 0 14.0858 0 14.5Z" fill="#4D535B"/>
</svg>
