<svg width="170" height="48" viewBox="0 0 170 48" fill="none" xmlns="http://www.w3.org/2000/svg">
<g clip-path="url(#clip0_62_67)">
<path d="M5.67188 43.3257C5.67188 44.2137 5.46777 44.9281 5.05957 45.4688C4.65137 46.0059 4.10352 46.2744 3.41602 46.2744C2.68197 46.2744 2.11442 46.0148 1.71338 45.4956L1.66504 46.167H0.751953V37.917H1.74561V40.9946C2.14665 40.4969 2.69987 40.248 3.40527 40.248C4.11068 40.248 4.6639 40.5148 5.06494 41.0483C5.46956 41.5819 5.67188 42.3123 5.67188 43.2397V43.3257ZM4.67822 43.2129C4.67822 42.5361 4.54753 42.0133 4.28613 41.6445C4.02474 41.2757 3.64876 41.0913 3.1582 41.0913C2.50293 41.0913 2.03206 41.3957 1.74561 42.0044V44.5181C2.04997 45.1268 2.52441 45.4312 3.16895 45.4312C3.64518 45.4312 4.01579 45.2467 4.28076 44.8779C4.54574 44.5091 4.67822 43.9541 4.67822 43.2129ZM8.76562 44.7114L10.1191 40.3555H11.1826L8.84619 47.064C8.48454 48.0308 7.90983 48.5142 7.12207 48.5142L6.93408 48.498L6.56348 48.4282V47.6226L6.83203 47.644C7.16862 47.644 7.43001 47.576 7.61621 47.4399C7.80599 47.3039 7.96175 47.055 8.0835 46.6934L8.30371 46.1025L6.23047 40.3555H7.31543L8.76562 44.7114ZM20.9688 46.167H19.9321L15.9951 40.1406V46.167H14.9585V38.3467H15.9951L19.9429 44.3999V38.3467H20.9688V46.167ZM27.2153 44.126H23.939L23.2031 46.167H22.1396L25.126 38.3467H26.0283L29.02 46.167H27.9619L27.2153 44.126ZM24.2505 43.2773H26.9092L25.5771 39.6196L24.2505 43.2773ZM31.104 43.1055V46.167H30.0728V38.3467H32.957C33.8128 38.3467 34.4824 38.5651 34.9658 39.002C35.4528 39.4388 35.6963 40.0171 35.6963 40.7368C35.6963 41.4959 35.4582 42.0814 34.9819 42.4932C34.5093 42.9014 33.8307 43.1055 32.9463 43.1055H31.104ZM31.104 42.2622H32.957C33.5085 42.2622 33.931 42.1333 34.2246 41.8755C34.5182 41.6141 34.665 41.2381 34.665 40.7476C34.665 40.2821 34.5182 39.9097 34.2246 39.6304C33.931 39.3511 33.5282 39.2061 33.0161 39.1953H31.104V42.2622ZM40.5894 44.126H37.313L36.5771 46.167H35.5137L38.5 38.3467H39.4023L42.394 46.167H41.3359L40.5894 44.126ZM37.6245 43.2773H40.2832L38.9512 39.6196L37.6245 43.2773Z" fill="white"/>
<path d="M58.7891 33.7822L64.9993 47.1493H63.5624L61.4692 42.7503H55.7218L53.6468 47.1493H52.1646L58.4533 33.7822H58.7891ZM58.6227 36.6227L56.3389 41.4653H60.8914L58.6227 36.6227Z" fill="white"/>
<path d="M67.1077 33.7822H68.4386V41.8541C68.4247 42.4521 68.4429 43.0505 68.4931 43.6465C68.5438 44.117 68.7067 44.5682 68.968 44.962C69.2535 45.3537 69.6377 45.6619 70.0812 45.8551C70.5524 46.0865 71.0691 46.209 71.5936 46.2136C72.0316 46.2139 72.4643 46.1174 72.8611 45.9311C73.253 45.7507 73.5994 45.4838 73.8744 45.1503C74.1602 44.7933 74.3665 44.379 74.4794 43.9351C74.5977 43.2441 74.6433 42.5426 74.6155 41.842V33.7822H75.9253V41.8541C75.9534 42.8322 75.8362 43.809 75.5774 44.7524C75.3199 45.521 74.833 46.1913 74.1829 46.6724C73.4584 47.2286 72.5657 47.5182 71.6541 47.4926C70.6767 47.5205 69.7139 47.2504 68.8924 46.7179C68.1537 46.2416 67.6079 45.5169 67.3527 44.6734C67.1893 44.1539 67.1077 43.2121 67.1077 41.8541V33.7822Z" fill="white"/>
<path d="M77.8794 35.0916V33.7822H85.1755V35.0916H82.208V47.1554H80.8499V35.0916H77.8794Z" fill="white"/>
<path d="M102.602 47.1552L104.508 33.7881H104.726L110.137 44.7612L115.5 33.7881H115.712L117.63 47.1552H116.323L115.007 37.5916L110.3 47.1552H109.959L105.194 37.5187L103.888 47.1552H102.602Z" fill="white"/>
<path d="M135.035 35.0916V33.7822H142.331V35.0916H139.364V47.1554H138.006V35.0916H135.035Z" fill="white"/>
<path d="M144.062 33.7822H145.392V47.1493H144.062V33.7822Z" fill="white"/>
<path d="M147.428 33.7822H148.877L153.29 44.1113L157.773 33.7822H159.222L153.43 47.1493H153.127L147.428 33.7822Z" fill="white"/>
<path d="M161.467 33.7822H169.093V35.0916H162.798V39.284H169.044V40.5903H162.798V45.846H169.044V47.1554H161.467V33.7822Z" fill="white"/>
<path d="M93.5515 33.7218C92.2222 33.6977 90.9159 34.0716 89.7991 34.7959C88.6822 35.5202 87.8054 36.5621 87.2804 37.7888C86.7554 39.0155 86.606 40.3714 86.8512 41.6837C87.0964 42.996 87.7251 44.2053 88.6572 45.1574C89.5893 46.1094 90.7826 46.7612 92.0849 47.0296C93.3873 47.298 94.7397 47.1708 95.9698 46.6643C97.1999 46.1578 98.2519 45.2949 98.9919 44.1857C99.7319 43.0764 100.126 41.7709 100.125 40.4357C100.138 38.6703 99.4537 36.9717 98.2213 35.7128C96.9888 34.4539 95.3092 33.7378 93.5515 33.7218ZM96.9303 39.655L93.376 46.1198C93.366 46.1372 93.3506 46.1508 93.3321 46.1585C93.3137 46.1662 93.2932 46.1675 93.2739 46.1623C93.2546 46.1572 93.2375 46.1457 93.2253 46.1298C93.2132 46.1138 93.2066 46.0943 93.2066 46.0742L93.1854 41.6205H90.2483C90.2321 41.6194 90.2166 41.6143 90.2029 41.6055C90.1893 41.5968 90.1781 41.5848 90.1703 41.5706C90.1625 41.5564 90.1583 41.5405 90.1582 41.5243C90.1581 41.5081 90.162 41.4921 90.1696 41.4778L93.7995 34.7699C93.8086 34.7503 93.8243 34.7346 93.8439 34.7256C93.8634 34.7166 93.8855 34.7149 93.9063 34.7207C93.927 34.7266 93.9449 34.7396 93.957 34.7575C93.969 34.7754 93.9743 34.797 93.9719 34.8185L93.9961 39.5152H96.8456C96.8609 39.5155 96.8759 39.5196 96.8893 39.527C96.9027 39.5345 96.9141 39.5451 96.9224 39.558C96.9308 39.5709 96.9359 39.5856 96.9372 39.6009C96.9386 39.6163 96.9362 39.6317 96.9303 39.6459V39.655Z" fill="white"/>
<path d="M0 23.696V0.580078H4.78541C8.22776 0.580078 10.7263 0.858559 12.2811 1.41552C14.4377 2.14114 16.2843 3.58214 17.5173 5.5016C18.7756 7.43983 19.4038 9.7497 19.4018 12.4312C19.4473 14.5662 18.9319 16.6755 17.9075 18.5467C17.02 20.1982 15.671 21.5531 14.0265 22.4444C12.4354 23.2788 10.206 23.696 7.33843 23.696H0ZM2.20819 21.5117H4.86708C8.04929 21.5117 10.2565 21.3092 11.4886 20.9041C13.1551 20.3891 14.596 19.3171 15.5722 17.8662C16.5644 16.3958 17.0605 14.5973 17.0605 12.4707C17.0605 10.2429 16.5231 8.33805 15.4482 6.75628C14.3762 5.1778 12.7864 4.02737 10.9562 3.50565C9.52444 3.06615 7.15492 2.84539 3.84769 2.84337H2.22028L2.20819 21.5117Z" fill="white"/>
<path d="M37.8385 18.0278L39.6837 19.003C39.161 20.0848 38.4501 21.0643 37.5845 21.8951C36.8061 22.6189 35.8976 23.187 34.9074 23.5691C33.8299 23.9668 32.6885 24.1615 31.5407 24.1432C28.7618 24.1432 26.5889 23.2318 25.022 21.4091C23.5044 19.6976 22.6724 17.482 22.6868 15.1903C22.6649 13.0851 23.3669 11.0367 24.6741 9.39083C26.356 7.22982 28.6065 6.15032 31.4257 6.15235C34.3297 6.15235 36.6488 7.25817 38.383 9.46982C39.6172 11.0313 40.2444 12.9797 40.2645 15.3149H24.9282C24.9686 17.3017 25.5998 18.9301 26.8218 20.1999C27.4032 20.8188 28.1075 21.3081 28.8891 21.6363C29.6707 21.9644 30.5122 22.124 31.3592 22.1048C32.2185 22.1065 33.0714 21.9564 33.8789 21.6612C34.6436 21.3876 35.3521 20.9757 35.9692 20.446C36.7094 19.7386 37.3396 18.9234 37.8385 18.0278ZM37.8385 13.4222C37.6165 12.4042 37.1813 11.4453 36.562 10.6091C35.9642 9.87779 35.2051 9.29636 34.3448 8.91083C33.4413 8.48678 32.4563 8.26693 31.459 8.26678C29.8704 8.23667 28.3301 8.8157 27.1515 9.88602C26.2743 10.6739 25.6109 11.8526 25.1612 13.4222H37.8385Z" fill="white"/>
<path d="M42.7209 6.60156H45.0532L50.7672 19.0573L56.4147 6.60156H58.7621L50.9699 23.6963H50.5615L42.7209 6.60156Z" fill="white"/>
<path d="M76.4305 18.0278L78.2757 19.003C77.7529 20.0848 77.042 21.0643 76.1764 21.8951C75.3999 22.6182 74.4934 23.1863 73.5054 23.5691C72.4279 23.9668 71.2865 24.1615 70.1387 24.1432C67.3598 24.1432 65.1869 23.2318 63.62 21.4091C62.0958 19.7004 61.2572 17.4844 61.2666 15.1903C61.2448 13.0851 61.9467 11.0367 63.254 9.39083C64.9358 7.22982 67.1864 6.15032 70.0056 6.15235C72.9095 6.15235 75.2286 7.25817 76.9629 9.46982C78.197 11.0313 78.8242 12.9797 78.8444 15.3149H63.5232C63.5615 17.3017 64.1927 18.9301 65.4168 20.1999C65.9981 20.8188 66.7024 21.3081 67.4841 21.6363C68.2657 21.9644 69.1072 22.124 69.9542 22.1048C70.8181 22.105 71.6752 21.9518 72.486 21.6521C73.2507 21.3785 73.9591 20.9666 74.5762 20.4369C75.3104 19.7312 75.9354 18.9191 76.4305 18.0278ZM76.4305 13.4222C76.2084 12.4042 75.7733 11.4453 75.154 10.6091C74.5562 9.87779 73.797 9.29636 72.9367 8.91083C72.0286 8.4846 71.0382 8.2647 70.0358 8.26678C68.4472 8.23667 66.9069 8.8157 65.7284 9.88602C64.8511 10.6739 64.1877 11.8526 63.738 13.4222H76.4305Z" fill="white"/>
<path d="M82.5952 0H84.7883V23.6962H82.5952V0Z" fill="white"/>
<path d="M97.4022 6.16088C98.6313 6.13124 99.852 6.37205 100.979 6.86642C102.105 7.36079 103.111 8.09675 103.924 9.02266C105.467 10.6988 106.309 12.9072 106.274 15.1897C106.296 17.5246 105.403 19.7743 103.788 21.454C102.132 23.2404 100.003 24.1335 97.3992 24.1335C94.7957 24.1335 92.6612 23.2404 90.9954 21.454C89.3826 19.7733 88.4908 17.5239 88.512 15.1897C88.4779 12.909 89.3196 10.7027 90.8623 9.02873C91.6774 8.09965 92.6854 7.36136 93.8154 6.86587C94.9453 6.37038 96.1697 6.12973 97.4022 6.16088ZM97.4022 8.31481C96.5217 8.30266 95.6484 8.47558 94.8383 8.82245C94.0282 9.16932 93.2994 9.68248 92.6985 10.329C92.0614 10.9748 91.5603 11.7429 91.2251 12.5874C90.8899 13.4319 90.7274 14.3355 90.7474 15.2444C90.7436 16.4577 91.0565 17.6507 91.6549 18.7047C92.2177 19.7383 93.0555 20.5945 94.0748 21.1776C95.098 21.7493 96.2495 22.0493 97.4203 22.0493C98.5912 22.0493 99.7427 21.7493 100.766 21.1776C101.784 20.5935 102.622 19.7375 103.186 18.7047C103.784 17.6507 104.097 16.4577 104.093 15.2444C104.106 14.3312 103.934 13.4248 103.588 12.58C103.242 11.7353 102.73 10.9695 102.082 10.329C101.483 9.68626 100.758 9.17538 99.9524 8.82867C99.1469 8.48196 98.2785 8.30698 97.4022 8.31481Z" fill="white"/>
<path d="M110.358 6.60147H112.551V9.74577C113.33 8.6283 114.358 7.70792 115.552 7.05716C116.714 6.4502 118.008 6.14227 119.318 6.16096C120.477 6.1449 121.626 6.3698 122.695 6.82151C123.763 7.27323 124.726 7.94199 125.525 8.78577C126.359 9.60852 127.017 10.5929 127.461 11.6792C127.905 12.7654 128.124 13.9309 128.105 15.1048C128.127 16.2909 127.91 17.4693 127.468 18.5695C127.026 19.6698 126.369 20.6694 125.534 21.5088C124.279 22.8132 122.647 23.6874 120.869 24.0075C119.091 24.3276 117.258 24.0773 115.63 23.2921C114.435 22.6795 113.385 21.8165 112.551 20.7615V29.9574H110.358V6.60147ZM119.13 8.28147C118.238 8.26239 117.351 8.42999 116.527 8.77361C115.703 9.11723 114.958 9.62935 114.342 10.2774C113.703 10.9307 113.201 11.7068 112.867 12.5592C112.534 13.4116 112.375 14.3229 112.4 15.2384C112.38 16.4607 112.679 17.6669 113.265 18.7382C113.845 19.7776 114.706 20.6316 115.748 21.202C116.787 21.7994 117.963 22.1136 119.16 22.1134C120.331 22.1198 121.482 21.8047 122.488 21.202C123.527 20.5849 124.382 19.6982 124.962 18.6349C125.563 17.5836 125.879 16.3927 125.879 15.1807C125.879 13.9687 125.563 12.7778 124.962 11.7265C124.389 10.6765 123.543 9.80185 122.514 9.19534C121.486 8.58884 120.314 8.27305 119.121 8.28147H119.13Z" fill="white"/>
<path d="M146.524 18.0278L148.372 19.003C147.848 20.0842 147.137 21.0635 146.273 21.8951C145.493 22.619 144.584 23.1871 143.593 23.5691C142.515 23.9668 141.374 24.1615 140.226 24.1432C137.449 24.1432 135.277 23.2318 133.71 21.4091C132.186 19.7005 131.349 17.4842 131.36 15.1903C131.338 13.0845 132.041 11.0358 133.35 9.39083C135.032 7.22982 137.283 6.15032 140.102 6.15235C143.002 6.15235 145.321 7.25817 147.059 9.46982C148.291 11.0313 148.917 12.9797 148.938 15.3149H133.613C133.656 17.3017 134.288 18.9301 135.51 20.1999C136.091 20.8188 136.796 21.3081 137.577 21.6363C138.359 21.9644 139.2 22.124 140.047 22.1048C140.91 22.1047 141.766 21.9515 142.576 21.6521C143.342 21.3782 144.051 20.9664 144.669 20.4369C145.404 19.7311 146.029 18.9191 146.524 18.0278ZM146.524 13.4222C146.304 12.4033 145.869 11.4439 145.247 10.6091C144.649 9.87779 143.89 9.29636 143.03 8.91083C142.123 8.48466 141.133 8.26475 140.132 8.26678C138.541 8.23511 136.999 8.81425 135.819 9.88602C134.941 10.6739 134.279 11.8526 133.831 13.4222H146.524Z" fill="white"/>
<path d="M170.015 0V23.6962H167.855V20.7615C167.017 21.8179 165.963 22.681 164.764 23.2921C163.133 24.077 161.297 24.3271 159.517 24.0071C157.736 23.6871 156.101 22.8131 154.842 21.5089C154.009 20.6693 153.352 19.6693 152.912 18.5689C152.473 17.4685 152.259 16.2903 152.283 15.1048C152.266 13.9301 152.487 12.7641 152.933 11.6779C153.379 10.5916 154.04 9.60765 154.875 8.78582C155.675 7.94217 156.64 7.27355 157.709 6.82188C158.778 6.3702 159.929 6.14521 161.089 6.16101C162.407 6.14172 163.71 6.44955 164.882 7.05721C166.073 7.70547 167.095 8.6266 167.864 9.74582V0H170.015ZM161.258 8.28152C160.067 8.27404 158.896 8.58958 157.868 9.19485C156.841 9.80012 155.995 10.6727 155.42 11.7205C154.819 12.7715 154.502 13.9625 154.502 15.1747C154.502 16.3869 154.819 17.5779 155.42 18.6289C156.001 19.6934 156.858 20.5803 157.9 21.1959C158.907 21.7975 160.057 22.1126 161.228 22.1073C162.424 22.1079 163.599 21.7937 164.637 21.1959C165.675 20.6228 166.533 19.7694 167.114 18.7321C167.7 17.6608 167.999 16.4547 167.979 15.2324C168.005 14.3165 167.845 13.405 167.511 12.5525C167.177 11.7 166.675 10.9241 166.034 10.2714C165.418 9.62639 164.676 9.11659 163.854 8.77411C163.032 8.43163 162.148 8.26391 161.258 8.28152Z" fill="white"/>
<path d="M126.901 47.1922C130.598 47.1922 133.595 44.1822 133.595 40.4691C133.595 36.7561 130.598 33.7461 126.901 33.7461C123.204 33.7461 120.207 36.7561 120.207 40.4691C120.207 44.1822 123.204 47.1922 126.901 47.1922Z" fill="white"/>
</g>
<defs>
<clipPath id="clip0_62_67">
<rect width="170" height="48" fill="white"/>
</clipPath>
</defs>
</svg>
