<svg width="19" height="19" viewBox="0 0 19 19" fill="none" xmlns="http://www.w3.org/2000/svg">
<path d="M11.7955 17.0189L11.8048 17.0253C12.6075 17.5264 13.5605 17.744 14.5065 17.6422C15.4524 17.5403 16.3345 17.1251 17.0072 16.4651L17.5915 15.8921C17.721 15.7653 17.8238 15.6146 17.8938 15.4488C17.9639 15.2829 18 15.1052 18 14.9257C18 14.7462 17.9639 14.5685 17.8938 14.4026C17.8238 14.2368 17.721 14.0861 17.5915 13.9593L15.1269 11.5445C14.9975 11.4175 14.8438 11.3168 14.6747 11.2481C14.5056 11.1794 14.3243 11.144 14.1412 11.144C13.9582 11.144 13.7769 11.1794 13.6077 11.2481C13.4386 11.3168 13.285 11.4175 13.1556 11.5445C12.8942 11.8007 12.5399 11.9446 12.1703 11.9446C11.8008 11.9446 11.4465 11.8007 11.1851 11.5445L7.24432 7.67965C6.98307 7.42342 6.83632 7.07596 6.83632 6.71366C6.83632 6.35136 6.98307 6.00389 7.24432 5.74767C7.37381 5.62078 7.47653 5.47012 7.54662 5.3043C7.61671 5.13847 7.65278 4.96073 7.65278 4.78123C7.65278 4.60172 7.61671 4.42398 7.54662 4.25816C7.47653 4.09233 7.37381 3.94167 7.24432 3.81478L4.7806 1.40004C4.51928 1.14389 4.1649 1 3.7954 1C3.42589 1 3.07151 1.14389 2.81019 1.40004L2.22492 1.97298C1.55194 2.63262 1.12862 3.49764 1.02491 4.4251C0.921198 5.35256 1.1433 6.28697 1.65451 7.07391L1.66009 7.08302C4.35993 10.9996 7.80049 14.3724 11.7955 17.0189V17.0189Z" stroke="white" stroke-width="1.4" stroke-linecap="round" stroke-linejoin="round"/>
</svg>
