<svg width="23" height="22" viewBox="0 0 23 22" fill="none" xmlns="http://www.w3.org/2000/svg">
<path fill-rule="evenodd" clip-rule="evenodd" d="M2.18774 10.5C2.18774 15.3325 6.10525 19.25 10.9377 19.25C15.7702 19.25 19.6877 15.3325 19.6877 10.5C19.6877 5.66751 15.7702 1.75 10.9377 1.75C6.10525 1.75 2.18774 5.66751 2.18774 10.5ZM10.9377 20.75C5.27683 20.75 0.687744 16.1609 0.687744 10.5C0.687744 4.83908 5.27683 0.25 10.9377 0.25C16.5987 0.25 21.1877 4.83908 21.1877 10.5C21.1877 13.0605 20.2489 15.4017 18.6966 17.1982L21.9681 20.4697C22.261 20.7626 22.261 21.2374 21.9681 21.5303C21.6752 21.8232 21.2003 21.8232 20.9074 21.5303L17.6359 18.2589C15.8395 19.8111 13.4983 20.75 10.9377 20.75Z" fill="white"/>
</svg>
