<svg width="14" height="16" viewBox="0 0 14 16" fill="none" xmlns="http://www.w3.org/2000/svg">
<path d="M13.732 4.38652C12.758 4.19911 11.8906 3.65128 11.3028 2.85237C10.5599 2.27095 10.0503 1.4422 9.86669 0.516846H7.72114V11.5399C7.72109 12.063 7.54986 12.5718 7.23359 12.9885C6.91731 13.4053 6.47336 13.7071 5.96951 13.8478C5.46565 13.9886 4.92957 13.9607 4.44309 13.7682C3.95661 13.5758 3.54646 13.2295 3.27524 12.7821C2.79293 12.4682 2.43968 11.9912 2.28004 11.4383C2.1204 10.8854 2.16502 10.2935 2.40576 9.77084C2.6465 9.24814 3.06727 8.8295 3.5912 8.59143C4.11513 8.35336 4.70722 8.31175 5.25929 8.47421V6.46053C4.31236 6.47272 3.38768 6.74937 2.58963 7.25923C1.79159 7.7691 1.15195 8.49189 0.742917 9.34602C0.333885 10.2001 0.171745 11.1516 0.2748 12.093C0.377854 13.0344 0.741999 13.9282 1.32613 14.6736C2.06771 15.2924 2.97032 15.687 3.92815 15.8111C4.88597 15.9352 5.85933 15.7836 6.73411 15.3742C7.60888 14.9648 8.34883 14.3146 8.8672 13.4996C9.38557 12.6847 9.66089 11.7389 9.66088 10.773L9.74299 5.20124C10.8996 6.0503 12.2975 6.50716 13.7323 6.50502L13.732 4.38652Z" fill="url(#paint0_linear_512_79)"/>
<defs>
<linearGradient id="paint0_linear_512_79" x1="-6.45666" y1="21.8448" x2="20.8453" y2="-5.45721" gradientUnits="userSpaceOnUse">
<stop stop-color="#DDE3E4"/>
<stop offset="1" stop-color="#FCF7F7"/>
</linearGradient>
</defs>
</svg>
