<svg width="18" height="12" viewBox="0 0 18 12" fill="none" xmlns="http://www.w3.org/2000/svg">
<path d="M9.73689 11.25C4.09947 11.25 0.883979 7.30856 0.75 0.75H3.57386C3.66661 5.56381 5.74844 7.60285 7.39741 8.02327V0.75H10.0564V4.90165C11.6847 4.72297 13.3955 2.83108 13.9727 0.75H16.6316C16.4142 1.82931 15.9806 2.85124 15.3582 3.75188C14.7358 4.65251 13.9378 5.41248 13.0142 5.98423C14.0452 6.50667 14.9557 7.24612 15.6859 8.15381C16.416 9.06149 16.9491 10.1168 17.25 11.25H14.3231C14.053 10.2657 13.504 9.38461 12.745 8.71712C11.986 8.04963 11.0507 7.62546 10.0564 7.49775V11.25H9.73689Z" fill="white"/>
</svg>
